<svg width="138" height="13" viewBox="0 0 138 13" fill="none" xmlns="http://www.w3.org/2000/svg">
<path d="M3.63636 9.95455H4.90909V6.84091H8.02273V5.56818H4.90909V2.45455H3.63636V5.56818H0.522727V6.84091H3.63636V9.95455ZM14.456 0.204545C12.0923 0.176136 10.5696 1.95455 10.5696 4.09091C10.5696 6.34091 12.2287 7.95455 14.2287 7.95455C15.4332 7.95455 16.456 7.36364 17.0923 6.40909H17.1832C17.1832 9.27273 16.0696 10.9091 14.2741 10.9091C13.0469 10.9091 12.2969 10.1364 12.0469 9.06818H10.6605C10.9332 10.9091 12.3196 12.1591 14.2741 12.1591C16.8878 12.1591 18.5014 9.84091 18.5014 5.70455C18.5014 1.43182 16.3651 0.227272 14.456 0.204545ZM14.456 1.45455C15.9105 1.45455 16.9787 2.70455 16.9787 4.06818C16.9787 5.45455 15.8423 6.70455 14.4105 6.70455C12.9787 6.70455 11.9332 5.54545 11.9332 4.09091C11.9332 2.63636 13.0241 1.45455 14.456 1.45455ZM24.4403 0.204545C22.0767 0.176136 20.554 1.95455 20.554 4.09091C20.554 6.34091 22.2131 7.95455 24.2131 7.95455C25.4176 7.95455 26.4403 7.36364 27.0767 6.40909H27.1676C27.1676 9.27273 26.054 10.9091 24.2585 10.9091C23.0312 10.9091 22.2812 10.1364 22.0312 9.06818H20.6449C20.9176 10.9091 22.304 12.1591 24.2585 12.1591C26.8722 12.1591 28.4858 9.84091 28.4858 5.70455C28.4858 1.43182 26.3494 0.227272 24.4403 0.204545ZM24.4403 1.45455C25.8949 1.45455 26.9631 2.70455 26.9631 4.06818C26.9631 5.45455 25.8267 6.70455 24.3949 6.70455C22.9631 6.70455 21.9176 5.54545 21.9176 4.09091C21.9176 2.63636 23.0085 1.45455 24.4403 1.45455ZM34.4474 12.1591C36.7713 12.1591 38.3906 10.8011 38.402 8.90909C38.3906 7.4375 37.4077 6.1875 36.152 5.95455V5.88636C37.2429 5.60227 37.9588 4.53409 37.9702 3.29545C37.9588 1.52273 36.4702 0.204545 34.4474 0.204545C32.402 0.204545 30.9134 1.52273 30.9247 3.29545C30.9134 4.53409 31.6293 5.60227 32.7429 5.88636V5.95455C31.4645 6.1875 30.4815 7.4375 30.4929 8.90909C30.4815 10.8011 32.1009 12.1591 34.4474 12.1591ZM34.4474 10.9091C32.8509 10.9091 31.8679 10.0909 31.8793 8.84091C31.8679 7.52841 32.9531 6.59091 34.4474 6.59091C35.919 6.59091 37.0043 7.52841 37.0156 8.84091C37.0043 10.0909 36.0213 10.9091 34.4474 10.9091ZM34.4474 5.38636C33.1747 5.38636 32.277 4.59091 32.2884 3.38636C32.277 2.20455 33.1406 1.43182 34.4474 1.43182C35.7315 1.43182 36.5952 2.20455 36.6065 3.38636C36.5952 4.59091 35.6974 5.38636 34.4474 5.38636ZM48.7841 0.204545C46.4205 0.176136 44.8977 1.95455 44.8977 4.09091C44.8977 6.34091 46.5568 7.95455 48.5568 7.95455C49.7614 7.95455 50.7841 7.36364 51.4205 6.40909H51.5114C51.5114 9.27273 50.3977 10.9091 48.6023 10.9091C47.375 10.9091 46.625 10.1364 46.375 9.06818H44.9886C45.2614 10.9091 46.6477 12.1591 48.6023 12.1591C51.2159 12.1591 52.8295 9.84091 52.8295 5.70455C52.8295 1.43182 50.6932 0.227272 48.7841 0.204545ZM48.7841 1.45455C50.2386 1.45455 51.3068 2.70455 51.3068 4.06818C51.3068 5.45455 50.1705 6.70455 48.7386 6.70455C47.3068 6.70455 46.2614 5.54545 46.2614 4.09091C46.2614 2.63636 47.3523 1.45455 48.7841 1.45455ZM58.9957 12.1591C61.2514 12.1591 62.9276 10.7443 62.9276 8.84091C62.9276 7.36364 62.0526 6.28977 60.5866 6.04545V5.95455C61.7628 5.59659 62.4957 4.63068 62.4957 3.31818C62.4957 1.67045 61.1946 0.204545 59.0412 0.204545C57.0298 0.204545 55.3594 1.44318 55.2912 3.27273H56.6548C56.706 2.11364 57.8082 1.43182 59.0185 1.43182C60.3026 1.43182 61.1321 2.21023 61.1321 3.38636C61.1321 4.61364 60.1719 5.40909 58.7912 5.40909H57.8594V6.65909H58.7912C60.5582 6.65909 61.5412 7.55682 61.5412 8.84091C61.5412 10.0739 60.4673 10.9091 58.973 10.9091C57.6264 10.9091 56.5582 10.2159 56.473 9.09091H55.0412C55.1264 10.9205 56.7401 12.1591 58.9957 12.1591ZM73.456 0.204545C71.0923 0.176136 69.5696 1.95455 69.5696 4.09091C69.5696 6.34091 71.2287 7.95455 73.2287 7.95455C74.4332 7.95455 75.456 7.36364 76.0923 6.40909H76.1832C76.1832 9.27273 75.0696 10.9091 73.2741 10.9091C72.0469 10.9091 71.2969 10.1364 71.0469 9.06818H69.6605C69.9332 10.9091 71.3196 12.1591 73.2741 12.1591C75.8878 12.1591 77.5014 9.84091 77.5014 5.70455C77.5014 1.43182 75.3651 0.227272 73.456 0.204545ZM73.456 1.45455C74.9105 1.45455 75.9787 2.70455 75.9787 4.06818C75.9787 5.45455 74.8423 6.70455 73.4105 6.70455C71.9787 6.70455 70.9332 5.54545 70.9332 4.09091C70.9332 2.63636 72.0241 1.45455 73.456 1.45455ZM83.8267 0.363636H82.4176L79.5085 2.29545V3.72727L82.3494 1.84091H82.4176V12H83.8267V0.363636ZM90.8097 12.1591C93.0256 12.1591 94.6506 10.5227 94.6506 8.29545C94.6506 6.03977 93.0824 4.38636 90.946 4.38636C90.1619 4.38636 89.4006 4.66477 88.9233 5.04545H88.8551L89.2642 1.61364H94.1278V0.363636H88.0824L87.3778 6.09091L88.696 6.25C89.179 5.90341 90.0028 5.65341 90.7188 5.65909C92.2017 5.67045 93.2869 6.79545 93.2869 8.31818C93.2869 9.8125 92.2415 10.9091 90.8097 10.9091C89.6165 10.9091 88.6676 10.142 88.5597 9.09091H87.196C87.2812 10.8636 88.8097 12.1591 90.8097 12.1591ZM105.499 0.363636H104.089L101.18 2.29545V3.72727L104.021 1.84091H104.089V12H105.499V0.363636ZM112.482 12.1591C114.697 12.1591 116.322 10.5227 116.322 8.29545C116.322 6.03977 114.754 4.38636 112.618 4.38636C111.834 4.38636 111.072 4.66477 110.595 5.04545H110.527L110.936 1.61364H115.8V0.363636H109.754L109.05 6.09091L110.368 6.25C110.851 5.90341 111.675 5.65341 112.391 5.65909C113.874 5.67045 114.959 6.79545 114.959 8.31818C114.959 9.8125 113.913 10.9091 112.482 10.9091C111.288 10.9091 110.339 10.142 110.232 9.09091H108.868C108.953 10.8636 110.482 12.1591 112.482 12.1591ZM127.17 0.363636H125.761L122.852 2.29545V3.72727L125.693 1.84091H125.761V12H127.17V0.363636ZM134.153 12.1591C136.369 12.1591 137.994 10.5227 137.994 8.29545C137.994 6.03977 136.426 4.38636 134.29 4.38636C133.506 4.38636 132.744 4.66477 132.267 5.04545H132.199L132.608 1.61364H137.472V0.363636H131.426L130.722 6.09091L132.04 6.25C132.523 5.90341 133.347 5.65341 134.062 5.65909C135.545 5.67045 136.631 6.79545 136.631 8.31818C136.631 9.8125 135.585 10.9091 134.153 10.9091C132.96 10.9091 132.011 10.142 131.903 9.09091H130.54C130.625 10.8636 132.153 12.1591 134.153 12.1591Z" fill="#404E9C"/>
</svg>
