<svg width="115" height="15" viewBox="0 0 115 15" fill="none" xmlns="http://www.w3.org/2000/svg">
<path d="M7.93182 14.3636C9.09091 14.3636 10.5682 14.0227 11.2727 13.7273L10.9545 12.6818C10.5455 12.8182 9.22727 13.2727 7.97727 13.2727C4.09091 13.2727 2.02273 11.0909 2.02273 7.22727C2.02273 3.43182 4.13636 1.15909 7.70455 1.15909C11.3182 1.15909 13.0227 3.70455 13.0227 6.25C13.0227 8.84091 12.75 10 11.5909 10C10.9091 10 10.5455 9.43182 10.5455 8.79545V3.65909H9.34091V4.29545H9.27273C9.11364 3.79545 8.22727 3.36364 7.09091 3.47727C5.38636 3.65909 4.09091 5.06818 4.09091 7.11364C4.09091 9.27273 5.11364 10.9318 7.09091 11C8.38636 11.0455 9.06818 10.4091 9.34091 9.75H9.40909C9.54545 10.7273 10.7727 11.0682 11.5682 11.0682C13.9773 11.0682 14.2045 8.47727 14.2045 6.27273C14.2045 3.15909 12.0227 0.090909 7.77273 0.090909C3.38636 0.090909 0.772727 2.75 0.772727 7.18182C0.772727 11.7727 3.29545 14.3636 7.93182 14.3636ZM7.27273 9.84091C5.79545 9.84091 5.27273 8.5 5.27273 7.04545C5.27273 5.72727 6.02273 4.59091 7.31818 4.59091C8.68182 4.59091 9.40909 5.13636 9.40909 7.04545C9.40909 8.93182 8.79545 9.84091 7.27273 9.84091ZM15.3935 1.36364L19.598 8.20455V13H21.0071V8.20455L25.2116 1.36364H23.598L20.3707 6.79545H20.2344L17.0071 1.36364H15.3935ZM29.1634 13.1818C31.527 13.1818 33.1179 11.3864 33.1179 8.68182C33.1179 5.95455 31.527 4.15909 29.1634 4.15909C26.7997 4.15909 25.2088 5.95455 25.2088 8.68182C25.2088 11.3864 26.7997 13.1818 29.1634 13.1818ZM29.1634 11.9773C27.3679 11.9773 26.5497 10.4318 26.5497 8.68182C26.5497 6.93182 27.3679 5.36364 29.1634 5.36364C30.9588 5.36364 31.777 6.93182 31.777 8.68182C31.777 10.4318 30.9588 11.9773 29.1634 11.9773ZM40.6648 9.43182C40.6648 11.0682 39.4148 11.8182 38.4148 11.8182C37.3011 11.8182 36.5057 11 36.5057 9.72727V4.27273H35.1648V9.81818C35.1648 12.0455 36.3466 13.1136 37.983 13.1136C39.3011 13.1136 40.1648 12.4091 40.5739 11.5227H40.6648V13H42.0057V4.27273H40.6648V9.43182ZM44.4616 13H45.8026V7.47727C45.8026 6.29545 46.7344 5.43182 48.0071 5.43182C48.3651 5.43182 48.7344 5.5 48.8253 5.52273V4.15909C48.6719 4.14773 48.3196 4.13636 48.1207 4.13636C47.0753 4.13636 46.1662 4.72727 45.848 5.59091H45.7571V4.27273H44.4616V13ZM54.1875 13C57.733 13 59.733 10.7955 59.733 7.15909C59.733 3.54545 57.733 1.36364 54.3466 1.36364H50.5966V13H54.1875ZM52.0057 11.75V2.61364H54.2557C56.983 2.61364 58.3693 4.34091 58.3693 7.15909C58.3693 10 56.983 11.75 54.0966 11.75H52.0057ZM65.4602 13.1818C67.8239 13.1818 69.4148 11.3864 69.4148 8.68182C69.4148 5.95455 67.8239 4.15909 65.4602 4.15909C63.0966 4.15909 61.5057 5.95455 61.5057 8.68182C61.5057 11.3864 63.0966 13.1818 65.4602 13.1818ZM65.4602 11.9773C63.6648 11.9773 62.8466 10.4318 62.8466 8.68182C62.8466 6.93182 63.6648 5.36364 65.4602 5.36364C67.2557 5.36364 68.0739 6.93182 68.0739 8.68182C68.0739 10.4318 67.2557 11.9773 65.4602 11.9773ZM71.4616 13H72.8026V7.54545C72.8026 6.26705 73.7344 5.36364 74.7798 5.36364C75.7969 5.36364 76.5071 6.02841 76.5071 7.02273V13H77.8707V7.31818C77.8707 6.19318 78.5753 5.36364 79.8026 5.36364C80.7571 5.36364 81.5753 5.86932 81.5753 7.15909V13H82.9162V7.15909C82.9162 5.10795 81.8139 4.15909 80.2571 4.15909C79.0071 4.15909 78.0923 4.73295 77.6435 5.63636H77.5526C77.1207 4.70455 76.3594 4.15909 75.2116 4.15909C74.0753 4.15909 73.2344 4.70455 72.8707 5.63636H72.7571V4.27273H71.4616V13ZM87.9361 13.2045C89.4588 13.2045 90.2543 12.3864 90.527 11.8182H90.5952V13H91.9361V7.25C91.9361 4.47727 89.8224 4.15909 88.7088 4.15909C87.3906 4.15909 85.8906 4.61364 85.2088 6.20455L86.4815 6.65909C86.777 6.02273 87.4759 5.34091 88.7543 5.34091C89.9872 5.34091 90.5952 5.99432 90.5952 7.11364V7.15909C90.5952 7.80682 89.9361 7.75 88.3452 7.95455C86.7259 8.16477 84.9588 8.52273 84.9588 10.5227C84.9588 12.2273 86.277 13.2045 87.9361 13.2045ZM88.1406 12C87.0724 12 86.2997 11.5227 86.2997 10.5909C86.2997 9.56818 87.2315 9.25 88.277 9.11364C88.8452 9.04545 90.3679 8.88636 90.5952 8.61364V9.84091C90.5952 10.9318 89.7315 12 88.1406 12ZM94.3835 13H95.7244V4.27273H94.3835V13ZM95.0653 2.81818C95.5881 2.81818 96.0199 2.40909 96.0199 1.90909C96.0199 1.40909 95.5881 1 95.0653 1C94.5426 1 94.1108 1.40909 94.1108 1.90909C94.1108 2.40909 94.5426 2.81818 95.0653 2.81818ZM99.5213 7.75C99.5213 6.22727 100.464 5.36364 101.749 5.36364C102.993 5.36364 103.749 6.17614 103.749 7.54545V13H105.089V7.45455C105.089 5.22727 103.902 4.15909 102.135 4.15909C100.817 4.15909 99.9986 4.75 99.5895 5.63636H99.4759V4.27273H98.1804V13H99.5213V7.75ZM108.881 7.75C108.881 6.22727 109.824 5.36364 111.108 5.36364C112.352 5.36364 113.108 6.17614 113.108 7.54545V13H114.449V7.45455C114.449 5.22727 113.261 4.15909 111.494 4.15909C110.176 4.15909 109.358 4.75 108.949 5.63636H108.835V4.27273H107.54V13H108.881V7.75Z" fill="#404E9C"/>
</svg>
