<svg width="103" height="16" viewBox="0 0 103 16" fill="none" xmlns="http://www.w3.org/2000/svg">
<path d="M7.93182 15.0682C9.09091 15.0682 10.5682 14.7273 11.2727 14.4318L10.9545 13.3864C10.5455 13.5227 9.22727 13.9773 7.97727 13.9773C4.09091 13.9773 2.02273 11.7955 2.02273 7.93182C2.02273 4.13636 4.13636 1.86364 7.70455 1.86364C11.3182 1.86364 13.0227 4.40909 13.0227 6.95455C13.0227 9.54545 12.75 10.7045 11.5909 10.7045C10.9091 10.7045 10.5455 10.1364 10.5455 9.5V4.36364H9.34091V5H9.27273C9.11364 4.5 8.22727 4.06818 7.09091 4.18182C5.38636 4.36364 4.09091 5.77273 4.09091 7.81818C4.09091 9.97727 5.11364 11.6364 7.09091 11.7045C8.38636 11.75 9.06818 11.1136 9.34091 10.4545H9.40909C9.54545 11.4318 10.7727 11.7727 11.5682 11.7727C13.9773 11.7727 14.2045 9.18182 14.2045 6.97727C14.2045 3.86364 12.0227 0.795454 7.77273 0.795454C3.38636 0.795454 0.772727 3.45455 0.772727 7.88636C0.772727 12.4773 3.29545 15.0682 7.93182 15.0682ZM7.27273 10.5455C5.79545 10.5455 5.27273 9.20455 5.27273 7.75C5.27273 6.43182 6.02273 5.29545 7.31818 5.29545C8.68182 5.29545 9.40909 5.84091 9.40909 7.75C9.40909 9.63636 8.79545 10.5455 7.27273 10.5455ZM17.0753 15.2727C18.2855 15.2727 19.1378 14.6307 19.6435 13.2727L23.3594 3.29545L21.8935 3.27273L19.4844 10.2273H19.3935L16.9844 3.27273H15.5298L18.7571 12.0455L18.5071 12.7273C18.0185 14.0568 17.4162 14.1818 16.4389 13.9318L16.098 15.1136C16.2344 15.1818 16.6207 15.2727 17.0753 15.2727ZM28.3665 12.1818C30.7301 12.1818 32.321 10.3864 32.321 7.68182C32.321 4.95455 30.7301 3.15909 28.3665 3.15909C26.0028 3.15909 24.4119 4.95455 24.4119 7.68182C24.4119 10.3864 26.0028 12.1818 28.3665 12.1818ZM28.3665 10.9773C26.571 10.9773 25.7528 9.43182 25.7528 7.68182C25.7528 5.93182 26.571 4.36364 28.3665 4.36364C30.1619 4.36364 30.9801 5.93182 30.9801 7.68182C30.9801 9.43182 30.1619 10.9773 28.3665 10.9773ZM39.8679 8.43182C39.8679 10.0682 38.6179 10.8182 37.6179 10.8182C36.5043 10.8182 35.7088 10 35.7088 8.72727V3.27273H34.3679V8.81818C34.3679 11.0455 35.5497 12.1136 37.1861 12.1136C38.5043 12.1136 39.3679 11.4091 39.777 10.5227H39.8679V12H41.2088V3.27273H39.8679V8.43182ZM43.6648 12H45.0057V6.47727C45.0057 5.29545 45.9375 4.43182 47.2102 4.43182C47.5682 4.43182 47.9375 4.5 48.0284 4.52273V3.15909C47.875 3.14773 47.5227 3.13636 47.3239 3.13636C46.2784 3.13636 45.3693 3.72727 45.0511 4.59091H44.9602V3.27273H43.6648V12ZM52.6477 12.1818C54.3295 12.1818 54.8977 11.1364 55.1932 10.6591H55.3523V12H56.6477V0.363636H55.3068V4.65909H55.1932C54.8977 4.20455 54.375 3.15909 52.6705 3.15909C50.4659 3.15909 48.9432 4.90909 48.9432 7.65909C48.9432 10.4318 50.4659 12.1818 52.6477 12.1818ZM52.8295 10.9773C51.1477 10.9773 50.2841 9.5 50.2841 7.63636C50.2841 5.79545 51.125 4.36364 52.8295 4.36364C54.4659 4.36364 55.3295 5.68182 55.3295 7.63636C55.3295 9.61364 54.4432 10.9773 52.8295 10.9773ZM62.8352 12.1818C65.1989 12.1818 66.7898 10.3864 66.7898 7.68182C66.7898 4.95455 65.1989 3.15909 62.8352 3.15909C60.4716 3.15909 58.8807 4.95455 58.8807 7.68182C58.8807 10.3864 60.4716 12.1818 62.8352 12.1818ZM62.8352 10.9773C61.0398 10.9773 60.2216 9.43182 60.2216 7.68182C60.2216 5.93182 61.0398 4.36364 62.8352 4.36364C64.6307 4.36364 65.4489 5.93182 65.4489 7.68182C65.4489 9.43182 64.6307 10.9773 62.8352 10.9773ZM68.8366 12H70.1776V6.54545C70.1776 5.26705 71.1094 4.36364 72.1548 4.36364C73.1719 4.36364 73.8821 5.02841 73.8821 6.02273V12H75.2457V6.31818C75.2457 5.19318 75.9503 4.36364 77.1776 4.36364C78.1321 4.36364 78.9503 4.86932 78.9503 6.15909V12H80.2912V6.15909C80.2912 4.10795 79.1889 3.15909 77.6321 3.15909C76.3821 3.15909 75.4673 3.73295 75.0185 4.63636H74.9276C74.4957 3.70455 73.7344 3.15909 72.5866 3.15909C71.4503 3.15909 70.6094 3.70455 70.2457 4.63636H70.1321V3.27273H68.8366V12ZM85.3111 12.2045C86.8338 12.2045 87.6293 11.3864 87.902 10.8182H87.9702V12H89.3111V6.25C89.3111 3.47727 87.1974 3.15909 86.0838 3.15909C84.7656 3.15909 83.2656 3.61364 82.5838 5.20455L83.8565 5.65909C84.152 5.02273 84.8509 4.34091 86.1293 4.34091C87.3622 4.34091 87.9702 4.99432 87.9702 6.11364V6.15909C87.9702 6.80682 87.3111 6.75 85.7202 6.95455C84.1009 7.16477 82.3338 7.52273 82.3338 9.52273C82.3338 11.2273 83.652 12.2045 85.3111 12.2045ZM85.5156 11C84.4474 11 83.6747 10.5227 83.6747 9.59091C83.6747 8.56818 84.6065 8.25 85.652 8.11364C86.2202 8.04545 87.7429 7.88636 87.9702 7.61364V8.84091C87.9702 9.93182 87.1065 11 85.5156 11ZM91.7585 12H93.0994V3.27273H91.7585V12ZM92.4403 1.81818C92.9631 1.81818 93.3949 1.40909 93.3949 0.909091C93.3949 0.409091 92.9631 0 92.4403 0C91.9176 0 91.4858 0.409091 91.4858 0.909091C91.4858 1.40909 91.9176 1.81818 92.4403 1.81818ZM96.8963 6.75C96.8963 5.22727 97.8395 4.36364 99.1236 4.36364C100.368 4.36364 101.124 5.17614 101.124 6.54545V12H102.464V6.45455C102.464 4.22727 101.277 3.15909 99.5099 3.15909C98.1918 3.15909 97.3736 3.75 96.9645 4.63636H96.8509V3.27273H95.5554V12H96.8963V6.75Z" fill="#404E9C"/>
</svg>
