<svg width="515" height="76" viewBox="0 0 515 76" fill="none" xmlns="http://www.w3.org/2000/svg">
<path d="M16.8565 74L22.2543 57.4162H48.4972L53.8949 74H70.3722L45.3011 1.27273H25.4858L0.379262 74H16.8565ZM26.1605 45.4134L35.1094 17.892H35.6776L44.6264 45.4134H26.1605ZM79.1257 74H110.198C126.533 74 135.234 65.4773 135.234 53.9006C135.234 43.1406 127.528 36.642 119.254 36.2514V35.5412C126.817 33.8366 132.393 28.4744 132.393 19.9162C132.393 9.0142 124.296 1.27273 108.245 1.27273H79.1257V74ZM94.5021 61.429V42.1108H107.393C114.779 42.1108 119.36 46.3722 119.36 52.3736C119.36 57.8423 115.631 61.429 107.038 61.429H94.5021ZM94.5021 31.706V13.7017H106.185C113.004 13.7017 116.874 17.2173 116.874 22.473C116.874 28.2259 112.187 31.706 105.901 31.706H94.5021ZM212.071 37.6364C212.071 13.8438 197.299 0.278406 178.016 0.278406C158.627 0.278406 143.961 13.8438 143.961 37.6364C143.961 61.3224 158.627 74.9943 178.016 74.9943C197.299 74.9943 212.071 61.429 212.071 37.6364ZM196.482 37.6364C196.482 53.0483 189.167 61.3935 178.016 61.3935C166.83 61.3935 159.55 53.0483 159.55 37.6364C159.55 22.2244 166.83 13.8793 178.016 13.8793C189.167 13.8793 196.482 22.2244 196.482 37.6364ZM268.384 1.27273V47.1889C268.384 55.4986 262.56 61.5 253.611 61.5C244.697 61.5 238.838 55.4986 238.838 47.1889V1.27273H223.462V48.5028C223.462 64.4119 235.464 75.0298 253.611 75.0298C271.686 75.0298 283.76 64.4119 283.76 48.5028V1.27273H268.384ZM293.641 13.9503H315.907V74H331.105V13.9503H353.371V1.27273H293.641V13.9503ZM431.274 1.27273V47.1889C431.274 55.4986 425.45 61.5 416.501 61.5C407.588 61.5 401.729 55.4986 401.729 47.1889V1.27273H386.352V48.5028C386.352 64.4119 398.355 75.0298 416.501 75.0298C434.577 75.0298 446.651 64.4119 446.651 48.5028V1.27273H431.274ZM498.755 22.1889H513.492C513.279 9.22727 502.625 0.278406 486.432 0.278406C470.488 0.278406 458.804 9.08523 458.875 22.2955C458.84 33.0199 466.404 39.1634 478.691 42.1108L486.61 44.0994C494.529 46.017 498.932 48.2898 498.968 53.1903C498.932 58.517 493.89 62.1392 486.077 62.1392C478.087 62.1392 472.334 58.446 471.837 51.1662H456.958C457.348 66.8977 468.605 75.0298 486.255 75.0298C504.01 75.0298 514.451 66.5426 514.486 53.2259C514.451 41.1165 505.324 34.6889 492.682 31.848L486.148 30.2855C479.827 28.8295 474.536 26.4858 474.642 21.2656C474.642 16.5781 478.797 13.1335 486.326 13.1335C493.676 13.1335 498.186 16.4716 498.755 22.1889Z" fill="black"/>
</svg>
