<svg width="74" height="15" viewBox="0 0 74 15" fill="none" xmlns="http://www.w3.org/2000/svg">
<path d="M3.39418 14L4.36577 11.0149H9.08949L10.0611 14H13.027L8.5142 0.909091H4.94744L0.428267 14H3.39418ZM5.06889 8.8544L6.67969 3.90057H6.78196L8.39276 8.8544H5.06889ZM17.7124 14.1598C19.2976 14.1598 20.1222 13.2457 20.4993 12.4276H20.6143V14H23.299V0.909091H20.5824V5.83097H20.4993C20.1349 5.03196 19.3487 4.05398 17.706 4.05398C15.5518 4.05398 13.7301 5.72869 13.7301 9.10369C13.7301 12.3892 15.4751 14.1598 17.7124 14.1598ZM18.5753 11.9929C17.2393 11.9929 16.5107 10.804 16.5107 9.09091C16.5107 7.39062 17.2266 6.22088 18.5753 6.22088C19.8984 6.22088 20.6399 7.33949 20.6399 9.09091C20.6399 10.8423 19.8857 11.9929 18.5753 11.9929ZM29.1557 14.1598C30.7409 14.1598 31.5655 13.2457 31.9426 12.4276H32.0577V14H34.7424V0.909091H32.0257V5.83097H31.9426C31.5783 5.03196 30.7921 4.05398 29.1493 4.05398C26.9952 4.05398 25.1735 5.72869 25.1735 9.10369C25.1735 12.3892 26.9185 14.1598 29.1557 14.1598ZM30.0186 11.9929C28.6827 11.9929 27.954 10.804 27.954 9.09091C27.954 7.39062 28.6699 6.22088 30.0186 6.22088C31.3418 6.22088 32.0833 7.33949 32.0833 9.09091C32.0833 10.8423 31.329 11.9929 30.0186 11.9929ZM36.9812 14H39.7042V8.44531C39.7042 7.23722 40.5863 6.40625 41.788 6.40625C42.1651 6.40625 42.6829 6.47017 42.9386 6.55327V4.13707C42.6957 4.07955 42.3569 4.04119 42.082 4.04119C40.9826 4.04119 40.0813 4.6804 39.7234 5.89489H39.6211V4.18182H36.9812V14ZM48.3638 14.1918C50.7928 14.1918 52.4292 13.0092 52.8127 11.1875L50.2942 11.0213C50.0194 11.7692 49.3162 12.1591 48.4086 12.1591C47.0471 12.1591 46.1841 11.2578 46.1841 9.79403V9.78764H52.8702V9.03977C52.8702 5.70312 50.8503 4.05398 48.2551 4.05398C45.3659 4.05398 43.4931 6.10582 43.4931 9.13565C43.4931 12.2486 45.3404 14.1918 48.3638 14.1918ZM46.1841 8.10014C46.2417 6.98153 47.0918 6.08665 48.2999 6.08665C49.4824 6.08665 50.3006 6.9304 50.307 8.10014H46.1841ZM62.8162 6.98153C62.5733 5.17259 61.1159 4.05398 58.6358 4.05398C56.1238 4.05398 54.4682 5.21733 54.4746 7.10938C54.4682 8.57955 55.3951 9.53196 57.3127 9.91548L59.013 10.2543C59.8695 10.4268 60.2594 10.7401 60.2722 11.2322C60.2594 11.8139 59.6266 12.2294 58.6742 12.2294C57.7026 12.2294 57.057 11.8139 56.8908 11.0149L54.2125 11.1555C54.4682 13.0348 56.0662 14.1918 58.6678 14.1918C61.2118 14.1918 63.0336 12.8942 63.04 10.9574C63.0336 9.53835 62.1067 8.68821 60.2019 8.2983L58.4249 7.94034C57.5108 7.74219 57.1721 7.42898 57.1784 6.95597C57.1721 6.3679 57.8368 5.98438 58.6806 5.98438C59.6266 5.98438 60.1891 6.50213 60.3233 7.13494L62.8162 6.98153ZM72.9237 6.98153C72.6808 5.17259 71.2234 4.05398 68.7433 4.05398C66.2312 4.05398 64.5756 5.21733 64.582 7.10938C64.5756 8.57955 65.5025 9.53196 67.4201 9.91548L69.1204 10.2543C69.9769 10.4268 70.3668 10.7401 70.3796 11.2322C70.3668 11.8139 69.734 12.2294 68.7816 12.2294C67.81 12.2294 67.1644 11.8139 66.9982 11.0149L64.32 11.1555C64.5756 13.0348 66.1737 14.1918 68.7752 14.1918C71.3192 14.1918 73.141 12.8942 73.1474 10.9574C73.141 9.53835 72.2141 8.68821 70.3093 8.2983L68.5323 7.94034C67.6183 7.74219 67.2795 7.42898 67.2859 6.95597C67.2795 6.3679 67.9442 5.98438 68.788 5.98438C69.734 5.98438 70.2965 6.50213 70.4308 7.13494L72.9237 6.98153Z" fill="#151875"/>
</svg>
