<svg width="14" height="14" viewBox="0 0 14 14" fill="none" xmlns="http://www.w3.org/2000/svg">
<g clip-path="url(#clip0)">
<path d="M1.55557 2.96371L-0.336182 1.07255L0.489235 0.247131L2.3804 2.13888H11.2716C11.3625 2.13888 11.4522 2.16012 11.5334 2.20093C11.6147 2.24173 11.6852 2.30097 11.7395 2.3739C11.7938 2.44684 11.8303 2.53145 11.8461 2.621C11.8619 2.71054 11.8565 2.80253 11.8304 2.88963L10.4304 7.5563C10.3944 7.67651 10.3206 7.78191 10.2199 7.85683C10.1192 7.93176 9.99706 7.97222 9.87157 7.97221H2.72223V9.13888H9.1389V10.3055H2.1389C1.98419 10.3055 1.83582 10.2441 1.72642 10.1347C1.61703 10.0253 1.55557 9.87692 1.55557 9.72221V2.96371ZM2.72223 3.30555V6.80555H9.43757L10.4876 3.30555H2.72223ZM2.43057 12.6389C2.1985 12.6389 1.97594 12.5467 1.81185 12.3826C1.64776 12.2185 1.55557 11.9959 1.55557 11.7639C1.55557 11.5318 1.64776 11.3093 1.81185 11.1452C1.97594 10.9811 2.1985 10.8889 2.43057 10.8889C2.66263 10.8889 2.88519 10.9811 3.04929 11.1452C3.21338 11.3093 3.30557 11.5318 3.30557 11.7639C3.30557 11.9959 3.21338 12.2185 3.04929 12.3826C2.88519 12.5467 2.66263 12.6389 2.43057 12.6389ZM9.43057 12.6389C9.1985 12.6389 8.97594 12.5467 8.81185 12.3826C8.64776 12.2185 8.55557 11.9959 8.55557 11.7639C8.55557 11.5318 8.64776 11.3093 8.81185 11.1452C8.97594 10.9811 9.1985 10.8889 9.43057 10.8889C9.66263 10.8889 9.88519 10.9811 10.0493 11.1452C10.2134 11.3093 10.3056 11.5318 10.3056 11.7639C10.3056 11.9959 10.2134 12.2185 10.0493 12.3826C9.88519 12.5467 9.66263 12.6389 9.43057 12.6389Z" fill="white"/>
</g>
<defs>
<clipPath id="clip0">
<rect width="14" height="14" fill="white"/>
</clipPath>
</defs>
</svg>
