<svg width="116" height="15" viewBox="0 0 116 15" fill="none" xmlns="http://www.w3.org/2000/svg">
<path d="M11.3111 5.16619C10.8636 2.36648 8.67116 0.730113 5.90341 0.730113C2.51562 0.730113 0.0163353 3.26776 0.0163353 7.45455C0.0163353 11.6413 2.50284 14.179 5.90341 14.179C8.77983 14.179 10.8828 12.3764 11.3111 9.78764L9.31676 9.78125C8.97798 11.456 7.57173 12.3764 5.91619 12.3764C3.67259 12.3764 1.97869 10.657 1.97869 7.45455C1.97869 4.2777 3.66619 2.53267 5.92259 2.53267C7.59091 2.53267 8.99077 3.4723 9.31676 5.16619H11.3111ZM25.046 7.45455C25.046 3.26776 22.5403 0.730113 19.1525 0.730113C15.752 0.730113 13.2527 3.26776 13.2527 7.45455C13.2527 11.6349 15.752 14.179 19.1525 14.179C22.5403 14.179 25.046 11.6413 25.046 7.45455ZM23.09 7.45455C23.09 10.6442 21.4025 12.3764 19.1525 12.3764C16.8961 12.3764 15.215 10.6442 15.215 7.45455C15.215 4.26491 16.8961 2.53267 19.1525 2.53267C21.4025 2.53267 23.09 4.26491 23.09 7.45455ZM38.0746 0.909091H36.1186V10.5227H35.9972L29.3366 0.909091H27.5085V14H29.4837V4.39915H29.6051L36.2592 14H38.0746V0.909091ZM40.3102 2.60938H44.3883V14H46.3571V2.60938H50.4416V0.909091H40.3102V2.60938ZM52.2218 14L53.4235 10.5355H58.5371L59.7324 14H61.829L57.1181 0.909091H54.8361L50.1252 14H52.2218ZM53.9988 8.87358L55.9292 3.28693H56.0314L57.9618 8.87358H53.9988ZM73.9771 5.16619C73.5297 2.36648 71.3372 0.730113 68.5694 0.730113C65.1816 0.730113 62.6824 3.26776 62.6824 7.45455C62.6824 11.6413 65.1689 14.179 68.5694 14.179C71.4458 14.179 73.5488 12.3764 73.9771 9.78764L71.9828 9.78125C71.644 11.456 70.2377 12.3764 68.5822 12.3764C66.3386 12.3764 64.6447 10.657 64.6447 7.45455C64.6447 4.2777 66.3322 2.53267 68.5886 2.53267C70.2569 2.53267 71.6568 3.4723 71.9828 5.16619H73.9771ZM75.695 2.60938H79.7731V14H81.7418V2.60938H85.8264V0.909091H75.695V2.60938ZM101.247 0.909091V9.35938C101.247 11.1364 100.02 12.4148 98.0256 12.4148C96.0376 12.4148 94.804 11.1364 94.804 9.35938V0.909091H92.8288V9.51918C92.8288 12.2678 94.8871 14.2173 98.0256 14.2173C101.164 14.2173 103.229 12.2678 103.229 9.51918V0.909091H101.247ZM113.24 4.34801H115.145C115.088 2.25142 113.234 0.730113 110.575 0.730113C107.948 0.730113 105.934 2.23224 105.934 4.48864C105.934 6.31037 107.238 7.37784 109.341 7.94673L110.888 8.36861C112.288 8.73935 113.368 9.19957 113.368 10.3629C113.368 11.6413 112.147 12.4851 110.466 12.4851C108.945 12.4851 107.679 11.8075 107.564 10.3821H105.583C105.71 12.7536 107.545 14.2173 110.479 14.2173C113.553 14.2173 115.324 12.6001 115.324 10.3821C115.324 8.02344 113.221 7.10938 111.559 6.70028L110.281 6.3679C109.258 6.10582 107.896 5.62642 107.903 4.37358C107.903 3.26136 108.919 2.43679 110.53 2.43679C112.032 2.43679 113.1 3.13991 113.24 4.34801Z" fill="#151875"/>
</svg>
