<svg width="407" height="76" viewBox="0 0 407 76" fill="none" xmlns="http://www.w3.org/2000/svg">
<path d="M26.1023 74C48.2614 74 61.6847 60.2926 61.6847 37.5653C61.6847 14.9091 48.2614 1.27273 26.3153 1.27273H0.321023V74H26.1023ZM15.6974 60.8253V14.4474H25.4986C39.1349 14.4474 46.3438 21.4077 46.3438 37.5653C46.3438 53.794 39.1349 60.8253 25.4631 60.8253H15.6974ZM73.0749 74H122.223V61.3224H88.4513V43.9574H119.559V31.2798H88.4513V13.9503H122.081V1.27273H73.0749V74ZM131.536 13.9503H153.801V74H169V13.9503H191.266V1.27273H131.536V13.9503ZM204.653 74L210.051 57.4162H236.294L241.692 74H258.169L233.098 1.27273H213.283L188.176 74H204.653ZM213.957 45.4134L222.906 17.892H223.474L232.423 45.4134H213.957ZM282.299 1.27273H266.923V74H282.299V1.27273ZM294.95 74H341.505V61.3224H310.326V1.27273H294.95V74ZM391.141 22.1889H405.879C405.665 9.22727 395.012 0.278406 378.819 0.278406C362.874 0.278406 351.191 9.08523 351.262 22.2955C351.227 33.0199 358.79 39.1634 371.077 42.1108L378.996 44.0994C386.915 46.017 391.319 48.2898 391.354 53.1903C391.319 58.517 386.276 62.1392 378.464 62.1392C370.474 62.1392 364.721 58.446 364.224 51.1662H349.344C349.735 66.8977 360.992 75.0298 378.641 75.0298C396.397 75.0298 406.837 66.5426 406.873 53.2259C406.837 41.1165 397.711 34.6889 385.069 31.848L378.535 30.2855C372.214 28.8295 366.923 26.4858 367.029 21.2656C367.029 16.5781 371.184 13.1335 378.712 13.1335C386.063 13.1335 390.573 16.4716 391.141 22.1889Z" fill="black"/>
</svg>
