<svg width="29" height="14" viewBox="0 0 29 14" fill="none" xmlns="http://www.w3.org/2000/svg">
<path d="M0.409091 12H1.81818V6.79545H6.86364V5.54545H1.81818V1.61364H7.38636V0.363636H0.409091V12ZM8.82386 12L9.99432 8.70455H14.6989L15.8693 12H17.3466L13.0739 0.363636H11.6193L7.34659 12H8.82386ZM10.4375 7.45455L12.3011 2.20455H12.392L14.2557 7.45455H10.4375ZM28.4304 6.18182C28.4304 2.5 26.2713 0.204545 23.294 0.204545C20.3168 0.204545 18.1577 2.5 18.1577 6.18182C18.1577 9.86364 20.3168 12.1591 23.294 12.1591C24.0554 12.1591 24.7599 12.0114 25.3906 11.7273L26.4077 13.0909H27.9531L26.4361 11.0739C27.6747 10.0568 28.4304 8.36364 28.4304 6.18182ZM22.8395 8.36364L24.5668 10.625C24.169 10.767 23.7429 10.8409 23.294 10.8409C21.1804 10.8409 19.5213 9.20455 19.5213 6.18182C19.5213 3.15909 21.1804 1.52273 23.294 1.52273C25.4077 1.52273 27.0668 3.15909 27.0668 6.18182C27.0668 7.9375 26.5099 9.22159 25.6236 9.99432L24.3849 8.36364H22.8395Z" fill="#404E9C"/>
</svg>
