<svg width="14" height="14" viewBox="0 0 14 14" fill="none" xmlns="http://www.w3.org/2000/svg">
<g clip-path="url(#clip0)">
<path d="M8.84725 1.75C10.6194 1.75 12.0556 3.20833 12.0556 5.25C12.0556 9.33333 7.68058 11.6667 6.22225 12.5417C4.76392 11.6667 0.388916 9.33333 0.388916 5.25C0.388916 3.20833 1.84725 1.75 3.59725 1.75C4.68225 1.75 5.63892 2.33333 6.22225 2.91667C6.80558 2.33333 7.76225 1.75 8.84725 1.75ZM6.76708 10.8523C7.281 10.528 7.74475 10.2054 8.17875 9.86008C9.91767 8.47758 10.8889 6.96675 10.8889 5.25C10.8889 3.87333 9.99233 2.91667 8.84725 2.91667C8.21958 2.91667 7.54058 3.24917 7.04708 3.7415L6.22225 4.56633L5.39742 3.7415C4.90392 3.24917 4.22492 2.91667 3.59725 2.91667C2.46558 2.91667 1.55558 3.88267 1.55558 5.25C1.55558 6.96733 2.52742 8.47758 4.26517 9.86008C4.69975 10.2054 5.1635 10.528 5.67742 10.8518C5.85183 10.962 6.0245 11.0676 6.22225 11.1854C6.42 11.0676 6.59267 10.962 6.76708 10.8523Z" fill="white"/>
</g>
<defs>
<clipPath id="clip0">
<rect width="14" height="14" fill="white"/>
</clipPath>
</defs>
</svg>
