<svg width="16" height="15" viewBox="0 0 16 15" fill="none" xmlns="http://www.w3.org/2000/svg">
<path d="M11.375 0.25C13.6535 0.25 15.5 2.125 15.5 4.75C15.5 10 9.875 13 8 14.125C6.125 13 0.5 10 0.5 4.75C0.5 2.125 2.375 0.25 4.625 0.25C6.02 0.25 7.25 1 8 1.75C8.75 1 9.98 0.25 11.375 0.25ZM8.7005 11.953C9.36125 11.536 9.9575 11.1213 10.5155 10.6772C12.7513 8.89975 14 6.95725 14 4.75C14 2.98 12.8472 1.75 11.375 1.75C10.568 1.75 9.695 2.1775 9.0605 2.8105L8 3.871L6.9395 2.8105C6.305 2.1775 5.432 1.75 4.625 1.75C3.17 1.75 2 2.992 2 4.75C2 6.958 3.2495 8.89975 5.48375 10.6772C6.0425 11.1213 6.63875 11.536 7.2995 11.9523C7.52375 12.094 7.74575 12.2297 8 12.3812C8.25425 12.2297 8.47625 12.094 8.7005 11.953Z" fill="#151875"/>
</svg>
