<svg width="294" height="75" viewBox="0 0 294 75" fill="none" xmlns="http://www.w3.org/2000/svg">
<path d="M0.321023 74H15.6974V43.9574H46.9119V74H62.2528V1.27273H46.9119V31.2798H15.6974V1.27273H0.321023V74ZM141.763 37.6364C141.763 13.8438 126.99 0.278406 107.707 0.278406C88.3182 0.278406 73.652 13.8438 73.652 37.6364C73.652 61.3224 88.3182 74.9943 107.707 74.9943C126.99 74.9943 141.763 61.429 141.763 37.6364ZM126.173 37.6364C126.173 53.0483 118.858 61.3935 107.707 61.3935C96.5213 61.3935 89.2415 53.0483 89.2415 37.6364C89.2415 22.2244 96.5213 13.8793 107.707 13.8793C118.858 13.8793 126.173 22.2244 126.173 37.6364ZM153.153 1.27273V74H168.068V26.4858H168.672L187.493 73.6449H197.649L216.47 26.6634H217.074V74H231.988V1.27273H213.025L192.997 50.1364H192.145L172.116 1.27273H153.153ZM244.657 74H293.805V61.3224H260.033V43.9574H291.141V31.2798H260.033V13.9503H293.663V1.27273H244.657V74Z" fill="black"/>
</svg>
