<svg width="98" height="16" viewBox="0 0 98 16" fill="none" xmlns="http://www.w3.org/2000/svg">
<path d="M0.409091 12H1.81818V6.79545H8.02273V12H9.43182V0.363636H8.02273V5.54545H1.81818V0.363636H0.409091V12ZM15.6165 12.1818C17.9801 12.1818 19.571 10.3864 19.571 7.68182C19.571 4.95455 17.9801 3.15909 15.6165 3.15909C13.2528 3.15909 11.6619 4.95455 11.6619 7.68182C11.6619 10.3864 13.2528 12.1818 15.6165 12.1818ZM15.6165 10.9773C13.821 10.9773 13.0028 9.43182 13.0028 7.68182C13.0028 5.93182 13.821 4.36364 15.6165 4.36364C17.4119 4.36364 18.2301 5.93182 18.2301 7.68182C18.2301 9.43182 17.4119 10.9773 15.6165 10.9773ZM23.2983 12H24.6165L26.5256 5.29545H26.6619L28.571 12H29.8892L32.5483 3.27273H31.1392L29.2528 9.93182H29.1619L27.321 3.27273H25.8892L24.0256 9.95455H23.9347L22.0483 3.27273H20.6392L23.2983 12ZM42.6165 3.27273H40.7528V1.18182H39.4119V3.27273H38.0938V4.40909H39.4119V9.86364C39.4119 11.3864 40.6392 12.1136 41.7756 12.1136C42.2756 12.1136 42.5938 12.0227 42.7756 11.9545L42.5028 10.75C42.3892 10.7727 42.2074 10.8182 41.9119 10.8182C41.321 10.8182 40.7528 10.6364 40.7528 9.5V4.40909H42.6165V3.27273ZM48.0852 12.1818C50.4489 12.1818 52.0398 10.3864 52.0398 7.68182C52.0398 4.95455 50.4489 3.15909 48.0852 3.15909C45.7216 3.15909 44.1307 4.95455 44.1307 7.68182C44.1307 10.3864 45.7216 12.1818 48.0852 12.1818ZM48.0852 10.9773C46.2898 10.9773 45.4716 9.43182 45.4716 7.68182C45.4716 5.93182 46.2898 4.36364 48.0852 4.36364C49.8807 4.36364 50.6989 5.93182 50.6989 7.68182C50.6989 9.43182 49.8807 10.9773 48.0852 10.9773ZM58.7685 12H60.0639V10.6591H60.223C60.5185 11.1364 61.0866 12.1818 62.7685 12.1818C64.9503 12.1818 66.473 10.4318 66.473 7.65909C66.473 4.90909 64.9503 3.15909 62.7457 3.15909C61.0412 3.15909 60.5185 4.20455 60.223 4.65909H60.1094V0.363636H58.7685V12ZM60.0866 7.63636C60.0866 5.68182 60.9503 4.36364 62.5866 4.36364C64.2912 4.36364 65.1321 5.79545 65.1321 7.63636C65.1321 9.5 64.2685 10.9773 62.5866 10.9773C60.973 10.9773 60.0866 9.61364 60.0866 7.63636ZM74.0241 8.43182C74.0241 10.0682 72.7741 10.8182 71.7741 10.8182C70.6605 10.8182 69.8651 10 69.8651 8.72727V3.27273H68.5241V8.81818C68.5241 11.0455 69.706 12.1136 71.3423 12.1136C72.6605 12.1136 73.5241 11.4091 73.9332 10.5227H74.0241V12H75.3651V3.27273H74.0241V8.43182ZM78.6847 15.2727C79.8949 15.2727 80.7472 14.6307 81.2528 13.2727L84.9688 3.29545L83.5028 3.27273L81.0938 10.2273H81.0028L78.5938 3.27273H77.1392L80.3665 12.0455L80.1165 12.7273C79.6278 14.0568 79.0256 14.1818 78.0483 13.9318L77.7074 15.1136C77.8438 15.1818 78.2301 15.2727 78.6847 15.2727ZM92.9929 8.72727H94.3565V8.65909C94.3793 7.25 94.7429 6.63636 95.7429 6.01136C96.7429 5.40341 97.3338 4.52841 97.3338 3.27273C97.3338 1.5 96.0384 0.204545 94.0384 0.204545C92.1974 0.204545 90.7372 1.34091 90.652 3.27273H92.0838C92.169 1.93182 93.1065 1.38636 94.0384 1.38636C95.1065 1.38636 95.9702 2.09091 95.9702 3.20455C95.9702 4.10795 95.4531 4.75568 94.7884 5.15909C93.6747 5.83523 93.0099 6.49432 92.9929 8.65909V8.72727ZM93.7202 12.0909C94.2827 12.0909 94.7429 11.6307 94.7429 11.0682C94.7429 10.5057 94.2827 10.0455 93.7202 10.0455C93.1577 10.0455 92.6974 10.5057 92.6974 11.0682C92.6974 11.6307 93.1577 12.0909 93.7202 12.0909Z" fill="#404E9C"/>
</svg>
