<svg width="135" height="15" viewBox="0 0 135 15" fill="none" xmlns="http://www.w3.org/2000/svg">
<path d="M2.41335 0.909091H0.43821V14H2.41335V0.909091ZM15.8558 0.909091H13.8999V10.5227H13.7784L7.1179 0.909091H5.28977V14H7.26491V4.39915H7.38636L14.0405 14H15.8558V0.909091ZM18.737 14H20.7122V8.2919H26.2733V6.59801H20.7122V2.60938H26.8549V0.909091H18.737V14ZM40.6554 7.45455C40.6554 3.26776 38.1497 0.730113 34.7619 0.730113C31.3613 0.730113 28.862 3.26776 28.862 7.45455C28.862 11.6349 31.3613 14.179 34.7619 14.179C38.1497 14.179 40.6554 11.6413 40.6554 7.45455ZM38.6994 7.45455C38.6994 10.6442 37.0119 12.3764 34.7619 12.3764C32.5055 12.3764 30.8244 10.6442 30.8244 7.45455C30.8244 4.26491 32.5055 2.53267 34.7619 2.53267C37.0119 2.53267 38.6994 4.26491 38.6994 7.45455ZM43.1179 14H45.093V9.04616H47.7777C47.8224 9.04616 47.8608 9.04616 47.9055 9.04616L50.5646 14H52.8146L49.9126 8.70099C51.517 8.10653 52.3161 6.7706 52.3161 5.01278C52.3161 2.60298 50.8203 0.909091 47.7841 0.909091H43.1179V14ZM45.093 7.34588V2.60298H47.5732C49.5227 2.60298 50.3281 3.52983 50.3281 5.01278C50.3281 6.48935 49.5227 7.34588 47.5987 7.34588H45.093ZM54.7195 0.909091V14H56.5987V4.5206H56.7202L60.581 13.9808H62.1406L66.0014 4.52699H66.1229V14H68.0021V0.909091H65.6051L61.4375 11.0852H61.2841L57.1165 0.909091H54.7195ZM71.9796 14L73.1813 10.5355H78.2949L79.4902 14H81.5868L76.8759 0.909091H74.5939L69.883 14H71.9796ZM73.7566 8.87358L75.687 3.28693H75.7892L77.7196 8.87358H73.7566ZM81.2672 2.60938H85.3453V14H87.3141V2.60938H91.3986V0.909091H81.2672V2.60938ZM95.6126 0.909091H93.6374V14H95.6126V0.909091ZM109.86 7.45455C109.86 3.26776 107.355 0.730113 103.967 0.730113C100.566 0.730113 98.0671 3.26776 98.0671 7.45455C98.0671 11.6349 100.566 14.179 103.967 14.179C107.355 14.179 109.86 11.6413 109.86 7.45455ZM107.904 7.45455C107.904 10.6442 106.217 12.3764 103.967 12.3764C101.711 12.3764 100.029 10.6442 100.029 7.45455C100.029 4.26491 101.711 2.53267 103.967 2.53267C106.217 2.53267 107.904 4.26491 107.904 7.45455ZM122.889 0.909091H120.933V10.5227H120.812L114.151 0.909091H112.323V14H114.298V4.39915H114.42L121.074 14H122.889V0.909091ZM132.91 4.34801H134.815C134.757 2.25142 132.904 0.730113 130.245 0.730113C127.618 0.730113 125.604 2.23224 125.604 4.48864C125.604 6.31037 126.908 7.37784 129.011 7.94673L130.558 8.36861C131.958 8.73935 133.038 9.19957 133.038 10.3629C133.038 11.6413 131.817 12.4851 130.136 12.4851C128.615 12.4851 127.349 11.8075 127.234 10.3821H125.252C125.38 12.7536 127.215 14.2173 130.149 14.2173C133.223 14.2173 134.994 12.6001 134.994 10.3821C134.994 8.02344 132.891 7.10938 131.229 6.70028L129.951 6.3679C128.928 6.10582 127.566 5.62642 127.573 4.37358C127.573 3.26136 128.589 2.43679 130.2 2.43679C131.702 2.43679 132.77 3.13991 132.91 4.34801Z" fill="#151875"/>
</svg>
