<svg width="14" height="14" viewBox="0 0 14 14" fill="none" xmlns="http://www.w3.org/2000/svg">
<path d="M11.6667 12.8333H10.5V11.6667C10.5 11.2025 10.3156 10.7574 9.98745 10.4292C9.65926 10.1011 9.21414 9.91668 8.75001 9.91668H5.25001C4.78588 9.91668 4.34076 10.1011 4.01257 10.4292C3.68438 10.7574 3.50001 11.2025 3.50001 11.6667V12.8333H2.33334V11.6667C2.33334 10.8931 2.64063 10.1513 3.18762 9.60428C3.7346 9.0573 4.47646 8.75001 5.25001 8.75001H8.75001C9.52356 8.75001 10.2654 9.0573 10.8124 9.60428C11.3594 10.1513 11.6667 10.8931 11.6667 11.6667V12.8333ZM7.00001 7.58334C6.54038 7.58334 6.08526 7.49281 5.66062 7.31692C5.23598 7.14103 4.85014 6.88322 4.52514 6.55822C4.20013 6.23321 3.94232 5.84738 3.76643 5.42274C3.59054 4.9981 3.50001 4.54297 3.50001 4.08334C3.50001 3.62372 3.59054 3.16859 3.76643 2.74395C3.94232 2.31931 4.20013 1.93347 4.52514 1.60847C4.85014 1.28346 5.23598 1.02566 5.66062 0.849765C6.08526 0.673874 6.54038 0.583343 7.00001 0.583344C7.92827 0.583344 8.81851 0.952092 9.47488 1.60847C10.1313 2.26485 10.5 3.15509 10.5 4.08334C10.5 5.0116 10.1313 5.90184 9.47488 6.55822C8.81851 7.21459 7.92827 7.58334 7.00001 7.58334ZM7.00001 6.41668C7.61885 6.41668 8.21234 6.17084 8.64993 5.73326C9.08751 5.29567 9.33334 4.70218 9.33334 4.08334C9.33334 3.46451 9.08751 2.87101 8.64993 2.43343C8.21234 1.99584 7.61885 1.75001 7.00001 1.75001C6.38117 1.75001 5.78768 1.99584 5.35009 2.43343C4.91251 2.87101 4.66668 3.46451 4.66668 4.08334C4.66668 4.70218 4.91251 5.29567 5.35009 5.73326C5.78768 6.17084 6.38117 6.41668 7.00001 6.41668Z" fill="white"/>
</svg>
