<svg width="298" height="75" viewBox="0 0 298 75" fill="none" xmlns="http://www.w3.org/2000/svg">
<path d="M0.321023 74H46.8764V61.3224H15.6974V1.27273H0.321023V74ZM121.06 37.6364C121.06 13.8438 106.287 0.278406 87.0043 0.278406C67.6151 0.278406 52.9489 13.8438 52.9489 37.6364C52.9489 61.3224 67.6151 74.9943 87.0043 74.9943C106.287 74.9943 121.06 61.429 121.06 37.6364ZM105.47 37.6364C105.47 53.0483 98.1548 61.3935 87.0043 61.3935C75.8182 61.3935 68.5384 53.0483 68.5384 37.6364C68.5384 22.2244 75.8182 13.8793 87.0043 13.8793C98.1548 13.8793 105.47 22.2244 105.47 37.6364ZM180.674 24.7812H196.299C194.311 10.3991 181.633 0.278406 165.191 0.278406C145.98 0.278406 131.172 14.1278 131.172 37.7074C131.172 60.7188 145.021 74.9943 165.511 74.9943C183.87 74.9943 196.974 63.3821 196.974 44.2415V35.0795H166.541V46.6562H182.166C181.953 55.6761 175.809 61.3935 165.582 61.3935C154.041 61.3935 146.761 52.7642 146.761 37.5653C146.761 22.4375 154.325 13.8793 165.44 13.8793C173.359 13.8793 178.721 17.9631 180.674 24.7812ZM223.901 1.27273H208.524V74H223.901V1.27273ZM297.382 1.27273H282.077V47.0114H281.438L250.046 1.27273H236.551V74H251.928V28.2259H252.461L284.101 74H297.382V1.27273Z" fill="black"/>
</svg>
