<svg width="102" height="18" viewBox="0 0 102 18" fill="none" xmlns="http://www.w3.org/2000/svg">
<path d="M11.0874 0.909091H8.33239V9.14205H8.21733L2.56676 0.909091H0.137784V14H2.90554V5.76065H3.00142L8.69673 14H11.0874V0.909091ZM17.7974 14.1918C20.2264 14.1918 21.8627 13.0092 22.2463 11.1875L19.7278 11.0213C19.4529 11.7692 18.7498 12.1591 17.8422 12.1591C16.4806 12.1591 15.6177 11.2578 15.6177 9.79403V9.78764H22.3038V9.03977C22.3038 5.70312 20.2839 4.05398 17.6887 4.05398C14.7995 4.05398 12.9267 6.10582 12.9267 9.13565C12.9267 12.2486 14.774 14.1918 17.7974 14.1918ZM15.6177 8.10014C15.6752 6.98153 16.5254 6.08665 17.7335 6.08665C18.916 6.08665 19.7342 6.9304 19.7406 8.10014H15.6177ZM28.5552 14.1918C30.9842 14.1918 32.6206 13.0092 33.0041 11.1875L30.4856 11.0213C30.2108 11.7692 29.5076 12.1591 28.6 12.1591C27.2385 12.1591 26.3755 11.2578 26.3755 9.79403V9.78764H33.0616V9.03977C33.0616 5.70312 31.0417 4.05398 28.4466 4.05398C25.5574 4.05398 23.6845 6.10582 23.6845 9.13565C23.6845 12.2486 25.5318 14.1918 28.5552 14.1918ZM26.3755 8.10014C26.4331 6.98153 27.2832 6.08665 28.4913 6.08665C29.6738 6.08665 30.492 6.9304 30.4984 8.10014H26.3755ZM38.4565 14.1598C40.0417 14.1598 40.8663 13.2457 41.2434 12.4276H41.3585V14H44.0431V0.909091H41.3265V5.83097H41.2434C40.8791 5.03196 40.0929 4.05398 38.4501 4.05398C36.296 4.05398 34.4743 5.72869 34.4743 9.10369C34.4743 12.3892 36.2193 14.1598 38.4565 14.1598ZM39.3194 11.9929C37.9835 11.9929 37.2548 10.804 37.2548 9.09091C37.2548 7.39062 37.9707 6.22088 39.3194 6.22088C40.6426 6.22088 41.3841 7.33949 41.3841 9.09091C41.3841 10.8423 40.6298 11.9929 39.3194 11.9929ZM53.171 8.32386C53.1774 7.05824 53.9508 6.31676 55.063 6.31676C56.1689 6.31676 56.8208 7.02628 56.8145 8.23438V14H59.5375V7.74858C59.5439 5.44744 58.1887 4.05398 56.1433 4.05398C54.6539 4.05398 53.6568 4.7571 53.2093 5.91406H53.0943V0.909091H50.448V14H53.171V8.32386ZM66.1548 14.1918C68.5838 14.1918 70.2202 13.0092 70.6037 11.1875L68.0852 11.0213C67.8104 11.7692 67.1072 12.1591 66.1996 12.1591C64.8381 12.1591 63.9751 11.2578 63.9751 9.79403V9.78764H70.6612V9.03977C70.6612 5.70312 68.6413 4.05398 66.0462 4.05398C63.157 4.05398 61.2841 6.10582 61.2841 9.13565C61.2841 12.2486 63.1314 14.1918 66.1548 14.1918ZM63.9751 8.10014C64.0327 6.98153 64.8828 6.08665 66.0909 6.08665C67.2734 6.08665 68.0916 6.9304 68.098 8.10014H63.9751ZM75.1612 0.909091H72.4382V14H75.1612V0.909091ZM77.3425 17.6818H80.0655V12.4276H80.1486C80.5257 13.2457 81.3503 14.1598 82.9355 14.1598C85.1728 14.1598 86.9178 12.3892 86.9178 9.10369C86.9178 5.72869 85.0961 4.05398 82.9419 4.05398C81.2992 4.05398 80.513 5.03196 80.1486 5.83097H80.0272V4.18182H77.3425V17.6818ZM80.008 9.09091C80.008 7.33949 80.7495 6.22088 82.0726 6.22088C83.4213 6.22088 84.1373 7.39062 84.1373 9.09091C84.1373 10.804 83.4086 11.9929 82.0726 11.9929C80.7623 11.9929 80.008 10.8423 80.008 9.09091ZM95.2386 10.0753H97.6612V9.85795C97.674 8.61151 98.1214 8.02983 99.1314 7.42259C100.327 6.71307 101.107 5.77344 101.107 4.27131C101.107 2.03409 99.304 0.730113 96.7663 0.730113C94.446 0.730113 92.554 1.9446 92.4964 4.50142H95.1044C95.1428 3.45952 95.9162 2.90341 96.7536 2.90341C97.6165 2.90341 98.3132 3.47869 98.3132 4.36719C98.3132 5.20455 97.706 5.76065 96.9197 6.25923C95.8459 6.93679 95.245 7.62074 95.2386 9.85795V10.0753ZM96.4979 14.1662C97.3161 14.1662 98.0256 13.4822 98.032 12.6321C98.0256 11.7947 97.3161 11.1108 96.4979 11.1108C95.6541 11.1108 94.9574 11.7947 94.9638 12.6321C94.9574 13.4822 95.6541 14.1662 96.4979 14.1662Z" fill="#151875"/>
</svg>
