<svg width="320" height="50" viewBox="0 0 320 50" fill="none" xmlns="http://www.w3.org/2000/svg">
<path d="M17.2884 9.90909C17.2884 3.96094 13.5952 0.569602 8.7745 0.569602C3.9272 0.569602 0.260653 3.96094 0.260653 9.90909C0.260653 15.8306 3.9272 19.2486 8.7745 19.2486C13.5952 19.2486 17.2884 15.8572 17.2884 9.90909ZM13.391 9.90909C13.391 13.7621 11.5621 15.8484 8.7745 15.8484C5.97798 15.8484 4.15803 13.7621 4.15803 9.90909C4.15803 6.05611 5.97798 3.96982 8.7745 3.96982C11.5621 3.96982 13.391 6.05611 13.391 9.90909ZM31.3664 0.818181V12.2972C31.3664 14.3746 29.9104 15.875 27.6732 15.875C25.4449 15.875 23.98 14.3746 23.98 12.2972V0.818181H20.1359V12.6257C20.1359 16.603 23.1366 19.2575 27.6732 19.2575C32.192 19.2575 35.2105 16.603 35.2105 12.6257V0.818181H31.3664ZM38.3732 19H42.2173V12.5547H45.0227L48.4673 19H52.7109L48.8491 11.9332C50.9176 11.0455 52.0629 9.24325 52.0629 6.75746C52.0629 3.14418 49.6747 0.818181 45.5465 0.818181H38.3732V19ZM42.2173 9.4652V3.96094H44.8097C47.0291 3.96094 48.1033 4.94638 48.1033 6.75746C48.1033 8.55966 47.0291 9.4652 44.8274 9.4652H42.2173ZM60.5656 19H64.4097V12.5547H67.2151L70.6597 19H74.9033L71.0415 11.9332C73.11 11.0455 74.2552 9.24325 74.2552 6.75746C74.2552 3.14418 71.8671 0.818181 67.7389 0.818181H60.5656V19ZM64.4097 9.4652V3.96094H67.002C69.2215 3.96094 70.2957 4.94638 70.2957 6.75746C70.2957 8.55966 69.2215 9.4652 67.0198 9.4652H64.4097ZM76.9719 19H89.2588V15.8306H80.816V11.4893H88.593V8.31996H80.816V3.98757H89.2233V0.818181H76.9719V19ZM108.322 7.18359C107.816 2.98438 104.637 0.569602 100.429 0.569602C95.6264 0.569602 91.9599 3.96094 91.9599 9.90909C91.9599 15.8395 95.5643 19.2486 100.429 19.2486C105.09 19.2486 107.904 16.1502 108.322 12.8033L104.433 12.7855C104.069 14.7298 102.542 15.8484 100.491 15.8484C97.7305 15.8484 95.8572 13.7976 95.8572 9.90909C95.8572 6.12713 97.7038 3.96982 100.518 3.96982C102.622 3.96982 104.14 5.18608 104.433 7.18359H108.322ZM127.786 9.90909C127.786 3.96094 124.093 0.569602 119.273 0.569602C114.425 0.569602 110.759 3.96094 110.759 9.90909C110.759 15.8306 114.425 19.2486 119.273 19.2486C124.093 19.2486 127.786 15.8572 127.786 9.90909ZM123.889 9.90909C123.889 13.7621 122.06 15.8484 119.273 15.8484C116.476 15.8484 114.656 13.7621 114.656 9.90909C114.656 6.05611 116.476 3.96982 119.273 3.96982C122.06 3.96982 123.889 6.05611 123.889 9.90909ZM130.634 0.818181V19H134.363V7.12145H134.514L139.219 18.9112H141.758L146.463 7.16584H146.614V19H150.343V0.818181H145.602L140.595 13.0341H140.382L135.375 0.818181H130.634ZM153.51 0.818181V19H157.239V7.12145H157.39L162.095 18.9112H164.634L169.339 7.16584H169.49V19H173.219V0.818181H168.478L163.471 13.0341H163.258L158.251 0.818181H153.51ZM176.386 19H188.673V15.8306H180.23V11.4893H188.007V8.31996H180.23V3.98757H188.637V0.818181H176.386V19ZM206.901 0.818181H203.075V12.2528H202.915L195.067 0.818181H191.694V19H195.538V7.55646H195.671L203.581 19H206.901V0.818181ZM216.523 19C222.062 19 225.418 15.5732 225.418 9.89134C225.418 4.22727 222.062 0.818181 216.576 0.818181H210.077V19H216.523ZM213.921 15.7063V4.11186H216.372C219.781 4.11186 221.583 5.85192 221.583 9.89134C221.583 13.9485 219.781 15.7063 216.363 15.7063H213.921ZM228.266 19H240.553V15.8306H232.11V11.4893H239.887V8.31996H232.11V3.98757H240.517V0.818181H228.266V19ZM242.881 3.98757H248.447V19H252.247V3.98757H257.813V0.818181H242.881V3.98757ZM264.117 0.818181H260.273V19H264.117V0.818181ZM283.988 9.90909C283.988 3.96094 280.294 0.569602 275.474 0.569602C270.626 0.569602 266.96 3.96094 266.96 9.90909C266.96 15.8306 270.626 19.2486 275.474 19.2486C280.294 19.2486 283.988 15.8572 283.988 9.90909ZM280.09 9.90909C280.09 13.7621 278.261 15.8484 275.474 15.8484C272.677 15.8484 270.857 13.7621 270.857 9.90909C270.857 6.05611 272.677 3.96982 275.474 3.96982C278.261 3.96982 280.09 6.05611 280.09 9.90909ZM302.043 0.818181H298.217V12.2528H298.057L290.209 0.818181H286.835V19H290.679V7.55646H290.812L298.723 19H302.043V0.818181ZM315.082 6.04723H318.767C318.713 2.80682 316.05 0.569602 312.002 0.569602C308.015 0.569602 305.095 2.77131 305.112 6.07386C305.104 8.75497 306.994 10.2908 310.066 11.0277L312.046 11.5249C314.026 12.0043 315.127 12.5724 315.135 13.7976C315.127 15.1293 313.866 16.0348 311.913 16.0348C309.915 16.0348 308.477 15.1115 308.353 13.2915H304.633C304.731 17.2244 307.545 19.2575 311.957 19.2575C316.396 19.2575 319.006 17.1357 319.015 13.8065C319.006 10.7791 316.725 9.17223 313.564 8.462L311.931 8.07138C310.35 7.70739 309.028 7.12145 309.054 5.81641C309.054 4.64453 310.093 3.78338 311.975 3.78338C313.813 3.78338 314.94 4.6179 315.082 6.04723ZM0.580256 49H4.42436V41.4893H11.8196V38.32H4.42436V33.9876H12.6186V30.8182H0.580256V49ZM31.9124 39.9091C31.9124 33.9609 28.2192 30.5696 23.3985 30.5696C18.5512 30.5696 14.8847 33.9609 14.8847 39.9091C14.8847 45.8306 18.5512 49.2486 23.3985 49.2486C28.2192 49.2486 31.9124 45.8572 31.9124 39.9091ZM28.015 39.9091C28.015 43.7621 26.1862 45.8484 23.3985 45.8484C20.602 45.8484 18.782 43.7621 18.782 39.9091C18.782 36.0561 20.602 33.9698 23.3985 33.9698C26.1862 33.9698 28.015 36.0561 28.015 39.9091ZM34.7599 49H38.604V42.5547H41.4094L44.854 49H49.0977L45.2358 41.9332C47.3043 41.0455 48.4496 39.2433 48.4496 36.7575C48.4496 33.1442 46.0614 30.8182 41.9332 30.8182H34.7599V49ZM38.604 39.4652V33.9609H41.1964C43.4158 33.9609 44.4901 34.9464 44.4901 36.7575C44.4901 38.5597 43.4158 39.4652 41.2141 39.4652H38.604ZM55.887 30.8182L62.5187 42.5724V49H66.3362V42.5724L72.968 30.8182H68.6622L64.5162 38.6484H64.3387L60.1927 30.8182H55.887ZM90.677 39.9091C90.677 33.9609 86.9838 30.5696 82.1632 30.5696C77.3159 30.5696 73.6493 33.9609 73.6493 39.9091C73.6493 45.8306 77.3159 49.2486 82.1632 49.2486C86.9838 49.2486 90.677 45.8572 90.677 39.9091ZM86.7797 39.9091C86.7797 43.7621 84.9508 45.8484 82.1632 45.8484C79.3667 45.8484 77.5467 43.7621 77.5467 39.9091C77.5467 36.0561 79.3667 33.9698 82.1632 33.9698C84.9508 33.9698 86.7797 36.0561 86.7797 39.9091ZM104.755 30.8182V42.2972C104.755 44.3746 103.299 45.875 101.062 45.875C98.8335 45.875 97.3687 44.3746 97.3687 42.2972V30.8182H93.5246V42.6257C93.5246 46.603 96.5253 49.2575 101.062 49.2575C105.581 49.2575 108.599 46.603 108.599 42.6257V30.8182H104.755Z" fill="white"/>
</svg>
