<svg width="178" height="32" viewBox="0 0 178 32" fill="none" xmlns="http://www.w3.org/2000/svg">
<path d="M11.2273 6.18182C11.2273 2.5 9.06818 0.204545 6.09091 0.204545C3.11364 0.204545 0.954545 2.5 0.954545 6.18182C0.954545 9.86364 3.11364 12.1591 6.09091 12.1591C9.06818 12.1591 11.2273 9.86364 11.2273 6.18182ZM9.86364 6.18182C9.86364 9.20455 8.20455 10.8409 6.09091 10.8409C3.97727 10.8409 2.31818 9.20455 2.31818 6.18182C2.31818 3.15909 3.97727 1.52273 6.09091 1.52273C8.20455 1.52273 9.86364 3.15909 9.86364 6.18182ZM14.5966 0.363636H13.3239V1.40909C13.3239 2.25 12.9148 2.97727 12.4375 3.65909L13.1648 4.25C14.0739 3.52273 14.5966 2.31818 14.5966 1.38636V0.363636ZM16.1179 12H22.9588V10.75H17.9815V10.6591L22.7997 4.34091V3.27273H16.277V4.52273H21.0724V4.61364L16.1179 10.9773V12ZM25.206 12H26.5014V10.6591H26.6605C26.956 11.1364 27.5241 12.1818 29.206 12.1818C31.3878 12.1818 32.9105 10.4318 32.9105 7.65909C32.9105 4.90909 31.3878 3.15909 29.1832 3.15909C27.4787 3.15909 26.956 4.20455 26.6605 4.65909H26.5469V0.363636H25.206V12ZM26.5241 7.63636C26.5241 5.68182 27.3878 4.36364 29.0241 4.36364C30.7287 4.36364 31.5696 5.79545 31.5696 7.63636C31.5696 9.5 30.706 10.9773 29.0241 10.9773C27.4105 10.9773 26.5241 9.61364 26.5241 7.63636ZM38.6207 12.1818C40.3935 12.1818 41.6889 11.2955 42.098 9.97727L40.8026 9.61364C40.4616 10.5227 39.6719 10.9773 38.6207 10.9773C37.0469 10.9773 35.9616 9.96023 35.8991 8.09091H42.2344V7.52273C42.2344 4.27273 40.3026 3.15909 38.4844 3.15909C36.1207 3.15909 34.5526 5.02273 34.5526 7.70455C34.5526 10.3864 36.098 12.1818 38.6207 12.1818ZM35.8991 6.93182C35.9901 5.57386 36.9503 4.36364 38.4844 4.36364C39.9389 4.36364 40.8707 5.45455 40.8707 6.93182H35.8991ZM44.2741 12H45.6151V8.73295L46.5526 7.86364L49.8196 12H51.5241L47.5639 7L51.2514 3.27273H49.5923L45.7741 7.15909H45.6151V0.363636H44.2741V12ZM52.9773 12H54.3182V3.27273H52.9773V12ZM53.6591 1.81818C54.1818 1.81818 54.6136 1.40909 54.6136 0.909091C54.6136 0.409091 54.1818 0 53.6591 0C53.1364 0 52.7045 0.409091 52.7045 0.909091C52.7045 1.40909 53.1364 1.81818 53.6591 1.81818ZM62.956 5.22727C62.5355 3.98864 61.5923 3.15909 59.8651 3.15909C58.0241 3.15909 56.6605 4.20455 56.6605 5.68182C56.6605 6.88636 57.3764 7.69318 58.9787 8.06818L60.4332 8.40909C61.3139 8.61364 61.7287 9.03409 61.7287 9.63636C61.7287 10.3864 60.9332 11 59.6832 11C58.5866 11 57.8991 10.5284 57.6605 9.59091L56.3878 9.90909C56.7003 11.392 57.9219 12.1818 59.706 12.1818C61.7344 12.1818 63.1151 11.0739 63.1151 9.56818C63.1151 8.35227 62.3537 7.58523 60.7969 7.20455L59.5014 6.88636C58.4673 6.63068 58.0014 6.28409 58.0014 5.61364C58.0014 4.86364 58.7969 4.31818 59.8651 4.31818C61.0355 4.31818 61.5185 4.96591 61.7514 5.56818L62.956 5.22727ZM68.929 3.27273H67.0653V1.18182H65.7244V3.27273H64.4062V4.40909H65.7244V9.86364C65.7244 11.3864 66.9517 12.1136 68.0881 12.1136C68.5881 12.1136 68.9062 12.0227 69.0881 11.9545L68.8153 10.75C68.7017 10.7727 68.5199 10.8182 68.2244 10.8182C67.6335 10.8182 67.0653 10.6364 67.0653 9.5V4.40909H68.929V3.27273ZM74.3977 12.1818C76.7614 12.1818 78.3523 10.3864 78.3523 7.68182C78.3523 4.95455 76.7614 3.15909 74.3977 3.15909C72.0341 3.15909 70.4432 4.95455 70.4432 7.68182C70.4432 10.3864 72.0341 12.1818 74.3977 12.1818ZM74.3977 10.9773C72.6023 10.9773 71.7841 9.43182 71.7841 7.68182C71.7841 5.93182 72.6023 4.36364 74.3977 4.36364C76.1932 4.36364 77.0114 5.93182 77.0114 7.68182C77.0114 9.43182 76.1932 10.9773 74.3977 10.9773ZM81.7401 6.75C81.7401 5.22727 82.6832 4.36364 83.9673 4.36364C85.2116 4.36364 85.9673 5.17614 85.9673 6.54545V12H87.3082V6.45455C87.3082 4.22727 86.1207 3.15909 84.3537 3.15909C83.0355 3.15909 82.2173 3.75 81.8082 4.63636H81.6946V3.27273H80.3991V12H81.7401V6.75ZM91.7585 10.4091H90.304L90.2358 11.0455C90.071 12.5852 89.7472 14.1193 89.5994 14.8409H90.6222C90.8949 14.0682 91.4744 12.3182 91.6676 11.0227L91.7585 10.4091ZM108.152 0.363636H106.766V9.52273H106.652L100.288 0.363636H98.9247V12H100.334V2.86364H100.447L106.788 12H108.152V0.363636ZM113.358 12.2045C114.881 12.2045 115.676 11.3864 115.949 10.8182H116.017V12H117.358V6.25C117.358 3.47727 115.244 3.15909 114.131 3.15909C112.812 3.15909 111.312 3.61364 110.631 5.20455L111.903 5.65909C112.199 5.02273 112.898 4.34091 114.176 4.34091C115.409 4.34091 116.017 4.99432 116.017 6.11364V6.15909C116.017 6.80682 115.358 6.75 113.767 6.95455C112.148 7.16477 110.381 7.52273 110.381 9.52273C110.381 11.2273 111.699 12.2045 113.358 12.2045ZM113.562 11C112.494 11 111.722 10.5227 111.722 9.59091C111.722 8.56818 112.653 8.25 113.699 8.11364C114.267 8.04545 115.79 7.88636 116.017 7.61364V8.84091C116.017 9.93182 115.153 11 113.562 11ZM119.805 12H121.146V6.54545C121.146 5.26705 122.078 4.36364 123.124 4.36364C124.141 4.36364 124.851 5.02841 124.851 6.02273V12H126.214V6.31818C126.214 5.19318 126.919 4.36364 128.146 4.36364C129.101 4.36364 129.919 4.86932 129.919 6.15909V12H131.26V6.15909C131.26 4.10795 130.158 3.15909 128.601 3.15909C127.351 3.15909 126.436 3.73295 125.987 4.63636H125.896C125.464 3.70455 124.703 3.15909 123.555 3.15909C122.419 3.15909 121.578 3.70455 121.214 4.63636H121.101V3.27273H119.805V12ZM136.28 12.2045C137.803 12.2045 138.598 11.3864 138.871 10.8182H138.939V12H140.28V6.25C140.28 3.47727 138.166 3.15909 137.053 3.15909C135.734 3.15909 134.234 3.61364 133.553 5.20455L134.825 5.65909C135.121 5.02273 135.82 4.34091 137.098 4.34091C138.331 4.34091 138.939 4.99432 138.939 6.11364V6.15909C138.939 6.80682 138.28 6.75 136.689 6.95455C135.07 7.16477 133.303 7.52273 133.303 9.52273C133.303 11.2273 134.621 12.2045 136.28 12.2045ZM136.484 11C135.416 11 134.643 10.5227 134.643 9.59091C134.643 8.56818 135.575 8.25 136.621 8.11364C137.189 8.04545 138.712 7.88636 138.939 7.61364V8.84091C138.939 9.93182 138.075 11 136.484 11ZM144.068 6.75C144.068 5.22727 145.011 4.36364 146.295 4.36364C147.54 4.36364 148.295 5.17614 148.295 6.54545V12H149.636V6.45455C149.636 4.22727 148.449 3.15909 146.682 3.15909C145.364 3.15909 144.545 3.75 144.136 4.63636H144.023V3.27273H142.727V12H144.068V6.75ZM155.609 15.4545C157.7 15.4545 159.382 14.5 159.382 12.25V3.27273H158.087V4.65909H157.95C157.655 4.20455 157.109 3.15909 155.405 3.15909C153.2 3.15909 151.678 4.90909 151.678 7.59091C151.678 10.3182 153.268 11.8636 155.382 11.8636C157.087 11.8636 157.632 10.8636 157.928 10.3864H158.041V12.1591C158.041 13.6136 157.018 14.2727 155.609 14.2727C154.024 14.2727 153.467 13.4375 153.109 12.9545L152.041 13.7045C152.587 14.6193 153.661 15.4545 155.609 15.4545ZM155.564 10.6591C153.882 10.6591 153.018 9.38636 153.018 7.56818C153.018 5.79545 153.859 4.36364 155.564 4.36364C157.2 4.36364 158.064 5.68182 158.064 7.56818C158.064 9.5 157.178 10.6591 155.564 10.6591ZM164.405 12.2045C165.928 12.2045 166.723 11.3864 166.996 10.8182H167.064V12H168.405V6.25C168.405 3.47727 166.291 3.15909 165.178 3.15909C163.859 3.15909 162.359 3.61364 161.678 5.20455L162.95 5.65909C163.246 5.02273 163.945 4.34091 165.223 4.34091C166.456 4.34091 167.064 4.99432 167.064 6.11364V6.15909C167.064 6.80682 166.405 6.75 164.814 6.95455C163.195 7.16477 161.428 7.52273 161.428 9.52273C161.428 11.2273 162.746 12.2045 164.405 12.2045ZM164.609 11C163.541 11 162.768 10.5227 162.768 9.59091C162.768 8.56818 163.7 8.25 164.746 8.11364C165.314 8.04545 166.837 7.88636 167.064 7.61364V8.84091C167.064 9.93182 166.2 11 164.609 11ZM172.193 6.75C172.193 5.22727 173.136 4.36364 174.42 4.36364C175.665 4.36364 176.42 5.17614 176.42 6.54545V12H177.761V6.45455C177.761 4.22727 176.574 3.15909 174.807 3.15909C173.489 3.15909 172.67 3.75 172.261 4.63636H172.148V3.27273H170.852V12H172.193V6.75ZM4.52273 31.1818C6.20455 31.1818 6.77273 30.1364 7.06818 29.6591H7.22727V31H8.52273V19.3636H7.18182V23.6591H7.06818C6.77273 23.2045 6.25 22.1591 4.54545 22.1591C2.34091 22.1591 0.818182 23.9091 0.818182 26.6591C0.818182 29.4318 2.34091 31.1818 4.52273 31.1818ZM4.70455 29.9773C3.02273 29.9773 2.15909 28.5 2.15909 26.6364C2.15909 24.7955 3 23.3636 4.70455 23.3636C6.34091 23.3636 7.20455 24.6818 7.20455 26.6364C7.20455 28.6136 6.31818 29.9773 4.70455 29.9773ZM14.7102 31.1818C17.0739 31.1818 18.6648 29.3864 18.6648 26.6818C18.6648 23.9545 17.0739 22.1591 14.7102 22.1591C12.3466 22.1591 10.7557 23.9545 10.7557 26.6818C10.7557 29.3864 12.3466 31.1818 14.7102 31.1818ZM14.7102 29.9773C12.9148 29.9773 12.0966 28.4318 12.0966 26.6818C12.0966 24.9318 12.9148 23.3636 14.7102 23.3636C16.5057 23.3636 17.3239 24.9318 17.3239 26.6818C17.3239 28.4318 16.5057 29.9773 14.7102 29.9773ZM21.8935 19.3636H20.6207V20.4091C20.6207 21.25 20.2116 21.9773 19.7344 22.6591L20.4616 23.25C21.3707 22.5227 21.8935 21.3182 21.8935 20.3864V19.3636ZM28.6122 24.2273C28.1918 22.9886 27.2486 22.1591 25.5213 22.1591C23.6804 22.1591 22.3168 23.2045 22.3168 24.6818C22.3168 25.8864 23.0327 26.6932 24.6349 27.0682L26.0895 27.4091C26.9702 27.6136 27.3849 28.0341 27.3849 28.6364C27.3849 29.3864 26.5895 30 25.3395 30C24.2429 30 23.5554 29.5284 23.3168 28.5909L22.044 28.9091C22.3565 30.392 23.5781 31.1818 25.3622 31.1818C27.3906 31.1818 28.7713 30.0739 28.7713 28.5682C28.7713 27.3523 28.0099 26.5852 26.4531 26.2045L25.1577 25.8864C24.1236 25.6307 23.6577 25.2841 23.6577 24.6136C23.6577 23.8636 24.4531 23.3182 25.5213 23.3182C26.6918 23.3182 27.1747 23.9659 27.4077 24.5682L28.6122 24.2273ZM34.5852 22.2727H32.7216V20.1818H31.3807V22.2727H30.0625V23.4091H31.3807V28.8636C31.3807 30.3864 32.608 31.1136 33.7443 31.1136C34.2443 31.1136 34.5625 31.0227 34.7443 30.9545L34.4716 29.75C34.358 29.7727 34.1761 29.8182 33.8807 29.8182C33.2898 29.8182 32.7216 29.6364 32.7216 28.5V23.4091H34.5852V22.2727ZM38.1307 19.3636H36.7898V31H38.1307V19.3636ZM40.5866 31H41.9276V22.2727H40.5866V31ZM41.2685 20.8182C41.7912 20.8182 42.223 20.4091 42.223 19.9091C42.223 19.4091 41.7912 19 41.2685 19C40.7457 19 40.3139 19.4091 40.3139 19.9091C40.3139 20.4091 40.7457 20.8182 41.2685 20.8182ZM44.3835 31H45.7244V27.733L46.6619 26.8636L49.929 31H51.6335L47.6733 26L51.3608 22.2727H49.7017L45.8835 26.1591H45.7244V19.3636H44.3835V31ZM63.7685 24.2273C63.348 22.9886 62.4048 22.1591 60.6776 22.1591C58.8366 22.1591 57.473 23.2045 57.473 24.6818C57.473 25.8864 58.1889 26.6932 59.7912 27.0682L61.2457 27.4091C62.1264 27.6136 62.5412 28.0341 62.5412 28.6364C62.5412 29.3864 61.7457 30 60.4957 30C59.3991 30 58.7116 29.5284 58.473 28.5909L57.2003 28.9091C57.5128 30.392 58.7344 31.1818 60.5185 31.1818C62.5469 31.1818 63.9276 30.0739 63.9276 28.5682C63.9276 27.3523 63.1662 26.5852 61.6094 26.2045L60.3139 25.8864C59.2798 25.6307 58.8139 25.2841 58.8139 24.6136C58.8139 23.8636 59.6094 23.3182 60.6776 23.3182C61.848 23.3182 62.331 23.9659 62.5639 24.5682L63.7685 24.2273ZM69.7415 22.2727H67.8778V20.1818H66.5369V22.2727H65.2188V23.4091H66.5369V28.8636C66.5369 30.3864 67.7642 31.1136 68.9006 31.1136C69.4006 31.1136 69.7188 31.0227 69.9006 30.9545L69.6278 29.75C69.5142 29.7727 69.3324 29.8182 69.0369 29.8182C68.446 29.8182 67.8778 29.6364 67.8778 28.5V23.4091H69.7415V22.2727ZM71.7585 31H73.0994V25.4773C73.0994 24.2955 74.0312 23.4318 75.304 23.4318C75.6619 23.4318 76.0312 23.5 76.1222 23.5227V22.1591C75.9688 22.1477 75.6165 22.1364 75.4176 22.1364C74.3722 22.1364 73.4631 22.7273 73.1449 23.5909H73.054V22.2727H71.7585V31ZM81.1051 31.1818C82.8778 31.1818 84.1733 30.2955 84.5824 28.9773L83.2869 28.6136C82.946 29.5227 82.1562 29.9773 81.1051 29.9773C79.5312 29.9773 78.446 28.9602 78.3835 27.0909H84.7188V26.5227C84.7188 23.2727 82.7869 22.1591 80.9688 22.1591C78.6051 22.1591 77.0369 24.0227 77.0369 26.7045C77.0369 29.3864 78.5824 31.1818 81.1051 31.1818ZM78.3835 25.9318C78.4744 24.5739 79.4347 23.3636 80.9688 23.3636C82.4233 23.3636 83.3551 24.4545 83.3551 25.9318H78.3835ZM90.4176 31.1818C92.1903 31.1818 93.4858 30.2955 93.8949 28.9773L92.5994 28.6136C92.2585 29.5227 91.4688 29.9773 90.4176 29.9773C88.8438 29.9773 87.7585 28.9602 87.696 27.0909H94.0312V26.5227C94.0312 23.2727 92.0994 22.1591 90.2812 22.1591C87.9176 22.1591 86.3494 24.0227 86.3494 26.7045C86.3494 29.3864 87.8949 31.1818 90.4176 31.1818ZM87.696 25.9318C87.7869 24.5739 88.7472 23.3636 90.2812 23.3636C91.7358 23.3636 92.6676 24.4545 92.6676 25.9318H87.696ZM99.8665 22.2727H98.0028V20.1818H96.6619V22.2727H95.3438V23.4091H96.6619V28.8636C96.6619 30.3864 97.8892 31.1136 99.0256 31.1136C99.5256 31.1136 99.8438 31.0227 100.026 30.9545L99.7528 29.75C99.6392 29.7727 99.4574 29.8182 99.1619 29.8182C98.571 29.8182 98.0028 29.6364 98.0028 28.5V23.4091H99.8665V22.2727ZM110.452 19.3636H109.043L106.134 21.2955V22.7273L108.974 20.8409H109.043V31H110.452V19.3636ZM117.662 31.1591C120.014 31.1875 121.548 29.4148 121.548 27.25C121.548 25 119.884 23.3864 117.889 23.3864C116.69 23.3864 115.662 23.9716 115.026 24.9318H114.935C114.94 22.0966 116.043 20.4545 117.844 20.4545C119.071 20.4545 119.81 21.2273 120.071 22.2727H121.457C121.173 20.4659 119.798 19.2045 117.844 19.2045C115.224 19.2045 113.616 21.5227 113.616 25.6364C113.616 29.9375 115.753 31.1364 117.662 31.1591ZM117.662 29.9091C116.202 29.9091 115.134 28.6648 115.139 27.2727C115.145 25.8807 116.264 24.6364 117.707 24.6364C119.134 24.6364 120.185 25.8068 120.185 27.25C120.185 28.7273 119.088 29.9091 117.662 29.9091ZM127.646 31.1591C129.999 31.1875 131.533 29.4148 131.533 27.25C131.533 25 129.868 23.3864 127.874 23.3864C126.675 23.3864 125.646 23.9716 125.01 24.9318H124.919C124.925 22.0966 126.027 20.4545 127.828 20.4545C129.055 20.4545 129.794 21.2273 130.055 22.2727H131.442C131.158 20.4659 129.783 19.2045 127.828 19.2045C125.209 19.2045 123.601 21.5227 123.601 25.6364C123.601 29.9375 125.737 31.1364 127.646 31.1591ZM127.646 29.9091C126.186 29.9091 125.118 28.6648 125.124 27.2727C125.129 25.8807 126.249 24.6364 127.692 24.6364C129.118 24.6364 130.169 25.8068 130.169 27.25C130.169 28.7273 129.072 29.9091 127.646 29.9091Z" fill="#404E9C"/>
</svg>
