<svg width="368" height="38" viewBox="0 0 368 38" fill="none" xmlns="http://www.w3.org/2000/svg">
<rect x="0.25" width="367.75" height="37.5" rx="5" fill="#F3F4FF"/>
<rect x="240" y="4" width="123.815" height="30" rx="5" fill="#2F1AC4"/>
<path d="M13.8539 14.2727L17.0073 19.4034V23H18.0642V19.4034L21.2176 14.2727H20.0073L17.5869 18.3466H17.4846L15.0642 14.2727H13.8539ZM24.1814 23.1364C25.9541 23.1364 27.1473 21.7898 27.1473 19.7614C27.1473 17.7159 25.9541 16.3693 24.1814 16.3693C22.4086 16.3693 21.2154 17.7159 21.2154 19.7614C21.2154 21.7898 22.4086 23.1364 24.1814 23.1364ZM24.1814 22.233C22.8348 22.233 22.2211 21.0739 22.2211 19.7614C22.2211 18.4489 22.8348 17.2727 24.1814 17.2727C25.5279 17.2727 26.1416 18.4489 26.1416 19.7614C26.1416 21.0739 25.5279 22.233 24.1814 22.233ZM32.8074 20.3239C32.8074 21.5511 31.8699 22.1136 31.1199 22.1136C30.2847 22.1136 29.6881 21.5 29.6881 20.5455V16.4545H28.6824V20.6136C28.6824 22.2841 29.5688 23.0852 30.7961 23.0852C31.7847 23.0852 32.4324 22.5568 32.7392 21.892H32.8074V23H33.8131V16.4545H32.8074V20.3239ZM35.6551 23H36.6608V18.858C36.6608 17.9716 37.3596 17.3239 38.3142 17.3239C38.5826 17.3239 38.8596 17.375 38.9278 17.392V16.3693C38.8127 16.3608 38.5485 16.3523 38.3994 16.3523C37.6153 16.3523 36.9335 16.7955 36.6948 17.4432H36.6267V16.4545H35.6551V23ZM43.6313 23H48.9665V22.0625H44.6881V19.0966H48.6256V18.1591H44.6881V15.2102H48.8983V14.2727H43.6313V23ZM54.4168 18.7898H50.5986V19.7273H54.4168V18.7898ZM56.1863 23H57.192V18.9091C57.192 17.9503 57.8909 17.2727 58.675 17.2727C59.4377 17.2727 59.9704 17.7713 59.9704 18.517V23H60.9931V18.7386C60.9931 17.8949 61.5216 17.2727 62.442 17.2727C63.1579 17.2727 63.7716 17.652 63.7716 18.6193V23H64.7772V18.6193C64.7772 17.081 63.9505 16.3693 62.7829 16.3693C61.8454 16.3693 61.1593 16.7997 60.8227 17.4773H60.7545C60.4306 16.7784 59.8596 16.3693 58.9988 16.3693C58.1466 16.3693 57.5159 16.7784 57.2431 17.4773H57.1579V16.4545H56.1863V23ZM68.5421 23.1534C69.6842 23.1534 70.2808 22.5398 70.4853 22.1136H70.5365V23H71.5421V18.6875C71.5421 16.608 69.9569 16.3693 69.1217 16.3693C68.1331 16.3693 67.0081 16.7102 66.4967 17.9034L67.4512 18.2443C67.6728 17.767 68.197 17.2557 69.1558 17.2557C70.0805 17.2557 70.5365 17.7457 70.5365 18.5852V18.6193C70.5365 19.1051 70.0421 19.0625 68.849 19.2159C67.6345 19.3736 66.3092 19.642 66.3092 21.142C66.3092 22.4205 67.2978 23.1534 68.5421 23.1534ZM68.6956 22.25C67.8944 22.25 67.3149 21.892 67.3149 21.1932C67.3149 20.4261 68.0137 20.1875 68.7978 20.0852C69.224 20.0341 70.366 19.9148 70.5365 19.7102V20.6307C70.5365 21.4489 69.8887 22.25 68.6956 22.25ZM73.3777 23H74.3834V16.4545H73.3777V23ZM73.8891 15.3636C74.2811 15.3636 74.605 15.0568 74.605 14.6818C74.605 14.3068 74.2811 14 73.8891 14C73.497 14 73.1732 14.3068 73.1732 14.6818C73.1732 15.0568 73.497 15.3636 73.8891 15.3636ZM77.2311 14.2727H76.2254V23H77.2311V14.2727Z" fill="#FB2E86"/>
<g filter="url(#filter0_d)">
<path d="M276.378 17.8892H278.398C278.381 16.2571 277.081 15.1534 275.053 15.1534C273.058 15.1534 271.622 16.2401 271.635 17.8636C271.631 19.1889 272.56 19.9347 274.068 20.2798L274.98 20.4929C275.939 20.7145 276.369 20.9744 276.378 21.4645C276.369 21.9972 275.871 22.3679 275.023 22.3679C274.089 22.3679 273.476 21.9332 273.429 21.0938H271.409C271.435 23.1349 272.854 24.1108 275.048 24.1108C277.222 24.1108 278.509 23.1264 278.517 21.4688C278.509 20.0753 277.567 19.223 275.845 18.8438L275.095 18.6733C274.303 18.5028 273.8 18.2386 273.817 17.7188C273.821 17.2415 274.23 16.8963 275.048 16.8963C275.871 16.8963 276.322 17.267 276.378 17.8892ZM283.805 21.1747C283.805 21.9375 283.32 22.3636 282.702 22.3636C282.062 22.3636 281.67 21.929 281.666 21.2173V17.4545H279.582V21.6264C279.587 23.1051 280.486 24.0852 281.832 24.0852C282.812 24.0852 283.541 23.5824 283.831 22.7812H283.899V24H285.885V17.4545H283.805V21.1747ZM287.211 24H289.274V22.9389H289.338C289.602 23.544 290.19 24.0938 291.179 24.0938C292.627 24.0938 293.795 22.9602 293.795 20.7315C293.795 18.4219 292.559 17.3693 291.191 17.3693C290.156 17.3693 289.589 17.9744 289.338 18.5753H289.295V15.2727H287.211V24ZM289.252 20.7273C289.252 19.6577 289.696 18.9972 290.458 18.9972C291.23 18.9972 291.656 19.6747 291.656 20.7273C291.656 21.7841 291.23 22.4702 290.458 22.4702C289.696 22.4702 289.252 21.7884 289.252 20.7273ZM300.602 19.4531C300.491 18.1577 299.43 17.3693 297.657 17.3693C295.884 17.3693 294.755 18.1406 294.763 19.4531C294.755 20.4588 295.398 21.1065 296.707 21.3494L297.849 21.5668C298.39 21.6733 298.637 21.8438 298.646 22.1335C298.637 22.4616 298.271 22.679 297.738 22.679C297.146 22.679 296.745 22.4233 296.656 21.946L294.597 21.9972C294.746 23.2926 295.859 24.1236 297.729 24.1236C299.481 24.1236 300.755 23.25 300.763 21.9034C300.755 20.9489 300.124 20.3821 298.82 20.1307L297.559 19.892C297.005 19.7812 296.826 19.5852 296.83 19.3338C296.826 19.0014 297.214 18.7969 297.695 18.7969C298.245 18.7969 298.629 19.0909 298.688 19.5043L300.602 19.4531ZM304.845 24.1236C306.686 24.1236 307.828 23.054 307.883 21.4347H305.936C305.859 22.1293 305.441 22.5085 304.87 22.5085C304.137 22.5085 303.66 21.8906 303.66 20.7273C303.66 19.5724 304.142 18.9545 304.87 18.9545C305.467 18.9545 305.855 19.3594 305.936 20.0284H307.883C307.836 18.4176 306.66 17.3693 304.841 17.3693C302.782 17.3693 301.538 18.7415 301.538 20.7486C301.538 22.7472 302.774 24.1236 304.845 24.1236ZM308.95 24H311.033V20.446C311.033 19.6662 311.587 19.142 312.333 19.142C312.58 19.142 312.951 19.1847 313.151 19.2528V17.4418C312.977 17.3949 312.759 17.3651 312.567 17.3651C311.852 17.3651 311.281 17.7827 311.042 18.6477H310.974V17.4545H308.95V24ZM314 24H316.084V17.4545H314V24ZM315.044 16.6918C315.637 16.6918 316.114 16.2443 316.114 15.6946C316.114 15.1449 315.637 14.7017 315.044 14.7017C314.456 14.7017 313.975 15.1449 313.975 15.6946C313.975 16.2443 314.456 16.6918 315.044 16.6918ZM317.411 24H319.473V22.9389H319.537C319.801 23.544 320.389 24.0938 321.378 24.0938C322.827 24.0938 323.994 22.9602 323.994 20.7315C323.994 18.4219 322.759 17.3693 321.391 17.3693C320.355 17.3693 319.788 17.9744 319.537 18.5753H319.494V15.2727H317.411V24ZM319.452 20.7273C319.452 19.6577 319.895 18.9972 320.658 18.9972C321.429 18.9972 321.855 19.6747 321.855 20.7273C321.855 21.7841 321.429 22.4702 320.658 22.4702C319.895 22.4702 319.452 21.7884 319.452 20.7273ZM328.146 24.1236C329.863 24.1236 330.993 23.2926 331.231 22.0057L329.318 21.9503C329.156 22.3849 328.73 22.6193 328.184 22.6193C327.383 22.6193 326.889 22.0866 326.889 21.2855V21.2301H331.252V20.7102C331.252 18.554 329.94 17.3693 328.082 17.3693C326.105 17.3693 324.835 18.7244 324.835 20.7528C324.835 22.8494 326.088 24.1236 328.146 24.1236ZM326.889 20.0199C326.919 19.3679 327.434 18.8736 328.125 18.8736C328.811 18.8736 329.305 19.3509 329.314 20.0199H326.889Z" fill="white"/>
</g>
<defs>
<filter id="filter0_d" x="267.409" y="14.7017" width="67.8433" height="17.4219" filterUnits="userSpaceOnUse" color-interpolation-filters="sRGB">
<feFlood flood-opacity="0" result="BackgroundImageFix"/>
<feColorMatrix in="SourceAlpha" type="matrix" values="0 0 0 0 0 0 0 0 0 0 0 0 0 0 0 0 0 0 127 0" result="hardAlpha"/>
<feOffset dy="4"/>
<feGaussianBlur stdDeviation="2"/>
<feComposite in2="hardAlpha" operator="out"/>
<feColorMatrix type="matrix" values="0 0 0 0 0 0 0 0 0 0 0 0 0 0 0 0 0 0 0.25 0"/>
<feBlend mode="normal" in2="BackgroundImageFix" result="effect1_dropShadow"/>
<feBlend mode="normal" in="SourceGraphic" in2="effect1_dropShadow" result="shape"/>
</filter>
</defs>
</svg>
