<svg width="277" height="76" viewBox="0 0 277 76" fill="none" xmlns="http://www.w3.org/2000/svg">
<path d="M42.7741 22.1889H57.5114C57.2983 9.22727 46.6449 0.278406 30.4517 0.278406C14.5071 0.278406 2.82386 9.08523 2.89489 22.2955C2.85938 33.0199 10.4233 39.1634 22.7102 42.1108L30.6293 44.0994C38.5483 46.017 42.9517 48.2898 42.9872 53.1903C42.9517 58.517 37.9091 62.1392 30.0966 62.1392C22.1065 62.1392 16.3537 58.446 15.8565 51.1662H0.977273C1.3679 66.8977 12.625 75.0298 30.2741 75.0298C48.0298 75.0298 58.4702 66.5426 58.5057 53.2259C58.4702 41.1165 49.3438 34.6889 36.7017 31.848L30.1676 30.2855C23.8466 28.8295 18.5554 26.4858 18.6619 21.2656C18.6619 16.5781 22.8168 13.1335 30.3452 13.1335C37.696 13.1335 42.206 16.4716 42.7741 22.1889ZM68.8484 74H84.2248V43.9574H115.439V74H130.78V1.27273H115.439V31.2798H84.2248V1.27273H68.8484V74ZM210.29 37.6364C210.29 13.8438 195.517 0.278406 176.235 0.278406C156.846 0.278406 142.179 13.8438 142.179 37.6364C142.179 61.3224 156.846 74.9943 176.235 74.9943C195.517 74.9943 210.29 61.429 210.29 37.6364ZM194.701 37.6364C194.701 53.0483 187.385 61.3935 176.235 61.3935C165.049 61.3935 157.769 53.0483 157.769 37.6364C157.769 22.2244 165.049 13.8793 176.235 13.8793C187.385 13.8793 194.701 22.2244 194.701 37.6364ZM221.68 74H237.057V50.4205H249.983C266.709 50.4205 276.439 40.4418 276.439 25.9176C276.439 11.4645 266.886 1.27273 250.374 1.27273H221.68V74ZM237.057 38.098V13.8438H247.426C256.304 13.8438 260.601 18.6733 260.601 25.9176C260.601 33.1264 256.304 38.098 247.497 38.098H237.057Z" fill="black"/>
</svg>
