<svg width="153" height="36" viewBox="0 0 153 36" fill="none" xmlns="http://www.w3.org/2000/svg">
<path d="M0.772727 2.61364H4.43182V13H5.84091V2.61364H9.5V1.36364H0.772727V2.61364ZM11.3565 16.2727C12.5668 16.2727 13.419 15.6307 13.9247 14.2727L17.6406 4.29545L16.1747 4.27273L13.7656 11.2273H13.6747L11.2656 4.27273H9.81108L13.0384 13.0455L12.7884 13.7273C12.2997 15.0568 11.6974 15.1818 10.7202 14.9318L10.3793 16.1136C10.5156 16.1818 10.902 16.2727 11.3565 16.2727ZM19.4148 16.2727H20.7557V11.6591H20.8693C21.1648 12.1364 21.733 13.1818 23.4148 13.1818C25.5966 13.1818 27.1193 11.4318 27.1193 8.65909C27.1193 5.90909 25.5966 4.15909 23.392 4.15909C21.6875 4.15909 21.1648 5.20455 20.8693 5.65909H20.7102V4.27273H19.4148V16.2727ZM20.733 8.63636C20.733 6.68182 21.5966 5.36364 23.233 5.36364C24.9375 5.36364 25.7784 6.79545 25.7784 8.63636C25.7784 10.5 24.9148 11.9773 23.233 11.9773C21.6193 11.9773 20.733 10.6136 20.733 8.63636ZM32.8239 13.1818C34.5966 13.1818 35.892 12.2955 36.3011 10.9773L35.0057 10.6136C34.6648 11.5227 33.875 11.9773 32.8239 11.9773C31.25 11.9773 30.1648 10.9602 30.1023 9.09091H36.4375V8.52273C36.4375 5.27273 34.5057 4.15909 32.6875 4.15909C30.3239 4.15909 28.7557 6.02273 28.7557 8.70455C28.7557 11.3864 30.3011 13.1818 32.8239 13.1818ZM30.1023 7.93182C30.1932 6.57386 31.1534 5.36364 32.6875 5.36364C34.142 5.36364 35.0739 6.45455 35.0739 7.93182H30.1023ZM46.5227 13.1818C48.8864 13.1818 50.4773 11.3864 50.4773 8.68182C50.4773 5.95455 48.8864 4.15909 46.5227 4.15909C44.1591 4.15909 42.5682 5.95455 42.5682 8.68182C42.5682 11.3864 44.1591 13.1818 46.5227 13.1818ZM46.5227 11.9773C44.7273 11.9773 43.9091 10.4318 43.9091 8.68182C43.9091 6.93182 44.7273 5.36364 46.5227 5.36364C48.3182 5.36364 49.1364 6.93182 49.1364 8.68182C49.1364 10.4318 48.3182 11.9773 46.5227 11.9773ZM56.4105 4.27273H54.456V3.38636C54.456 2.52273 54.8196 2.06818 55.706 2.06818C56.0923 2.06818 56.3196 2.15909 56.456 2.20455L56.8423 1.04545C56.6378 0.954545 56.2287 0.818181 55.5696 0.818181C54.3196 0.818181 53.1151 1.56818 53.1151 3.06818V4.27273H51.706V5.40909H53.1151V13H54.456V5.40909H56.4105V4.27273ZM66.0852 13.1818C67.767 13.1818 68.3352 12.1364 68.6307 11.6591H68.7898V13H70.0852V1.36364H68.7443V5.65909H68.6307C68.3352 5.20455 67.8125 4.15909 66.108 4.15909C63.9034 4.15909 62.3807 5.90909 62.3807 8.65909C62.3807 11.4318 63.9034 13.1818 66.0852 13.1818ZM66.267 11.9773C64.5852 11.9773 63.7216 10.5 63.7216 8.63636C63.7216 6.79545 64.5625 5.36364 66.267 5.36364C67.9034 5.36364 68.767 6.68182 68.767 8.63636C68.767 10.6136 67.8807 11.9773 66.267 11.9773ZM76.3864 13.1818C78.1591 13.1818 79.4545 12.2955 79.8636 10.9773L78.5682 10.6136C78.2273 11.5227 77.4375 11.9773 76.3864 11.9773C74.8125 11.9773 73.7273 10.9602 73.6648 9.09091H80V8.52273C80 5.27273 78.0682 4.15909 76.25 4.15909C73.8864 4.15909 72.3182 6.02273 72.3182 8.70455C72.3182 11.3864 73.8636 13.1818 76.3864 13.1818ZM73.6648 7.93182C73.7557 6.57386 74.7159 5.36364 76.25 5.36364C77.7045 5.36364 78.6364 6.45455 78.6364 7.93182H73.6648ZM83.3807 1.36364H82.0398V13H83.3807V1.36364ZM85.8366 13H87.1776V4.27273H85.8366V13ZM86.5185 2.81818C87.0412 2.81818 87.473 2.40909 87.473 1.90909C87.473 1.40909 87.0412 1 86.5185 1C85.9957 1 85.5639 1.40909 85.5639 1.90909C85.5639 2.40909 85.9957 2.81818 86.5185 2.81818ZM96.7699 4.27273H95.3153L92.9062 11.2273H92.8153L90.4062 4.27273H88.9517L92.179 13H93.5426L96.7699 4.27273ZM101.886 13.1818C103.659 13.1818 104.955 12.2955 105.364 10.9773L104.068 10.6136C103.727 11.5227 102.938 11.9773 101.886 11.9773C100.312 11.9773 99.2273 10.9602 99.1648 9.09091H105.5V8.52273C105.5 5.27273 103.568 4.15909 101.75 4.15909C99.3864 4.15909 97.8182 6.02273 97.8182 8.70455C97.8182 11.3864 99.3636 13.1818 101.886 13.1818ZM99.1648 7.93182C99.2557 6.57386 100.216 5.36364 101.75 5.36364C103.205 5.36364 104.136 6.45455 104.136 7.93182H99.1648ZM107.54 13H108.881V7.47727C108.881 6.29545 109.812 5.43182 111.085 5.43182C111.443 5.43182 111.812 5.5 111.903 5.52273V4.15909C111.75 4.14773 111.398 4.13636 111.199 4.13636C110.153 4.13636 109.244 4.72727 108.926 5.59091H108.835V4.27273H107.54V13ZM114.622 16.2727C115.832 16.2727 116.685 15.6307 117.19 14.2727L120.906 4.29545L119.44 4.27273L117.031 11.2273H116.94L114.531 4.27273H113.077L116.304 13.0455L116.054 13.7273C115.565 15.0568 114.963 15.1818 113.986 14.9318L113.645 16.1136C113.781 16.1818 114.168 16.2727 114.622 16.2727ZM129.749 13.2045C131.271 13.2045 132.067 12.3864 132.339 11.8182H132.408V13H133.749V7.25C133.749 4.47727 131.635 4.15909 130.521 4.15909C129.203 4.15909 127.703 4.61364 127.021 6.20455L128.294 6.65909C128.589 6.02273 129.288 5.34091 130.567 5.34091C131.8 5.34091 132.408 5.99432 132.408 7.11364V7.15909C132.408 7.80682 131.749 7.75 130.158 7.95455C128.538 8.16477 126.771 8.52273 126.771 10.5227C126.771 12.2273 128.089 13.2045 129.749 13.2045ZM129.953 12C128.885 12 128.112 11.5227 128.112 10.5909C128.112 9.56818 129.044 9.25 130.089 9.11364C130.658 9.04545 132.18 8.88636 132.408 8.61364V9.84091C132.408 10.9318 131.544 12 129.953 12ZM137.537 7.75C137.537 6.22727 138.48 5.36364 139.764 5.36364C141.009 5.36364 141.764 6.17614 141.764 7.54545V13H143.105V7.45455C143.105 5.22727 141.918 4.15909 140.151 4.15909C138.832 4.15909 138.014 4.75 137.605 5.63636H137.491V4.27273H136.196V13H137.537V7.75ZM148.851 13.1818C150.533 13.1818 151.101 12.1364 151.396 11.6591H151.555V13H152.851V1.36364H151.51V5.65909H151.396C151.101 5.20455 150.578 4.15909 148.874 4.15909C146.669 4.15909 145.146 5.90909 145.146 8.65909C145.146 11.4318 146.669 13.1818 148.851 13.1818ZM149.033 11.9773C147.351 11.9773 146.487 10.5 146.487 8.63636C146.487 6.79545 147.328 5.36364 149.033 5.36364C150.669 5.36364 151.533 6.68182 151.533 8.63636C151.533 10.6136 150.646 11.9773 149.033 11.9773ZM1.22727 35.2727H2.56818V30.6591H2.68182C2.97727 31.1364 3.54545 32.1818 5.22727 32.1818C7.40909 32.1818 8.93182 30.4318 8.93182 27.6591C8.93182 24.9091 7.40909 23.1591 5.20455 23.1591C3.5 23.1591 2.97727 24.2045 2.68182 24.6591H2.52273V23.2727H1.22727V35.2727ZM2.54545 27.6364C2.54545 25.6818 3.40909 24.3636 5.04545 24.3636C6.75 24.3636 7.59091 25.7955 7.59091 27.6364C7.59091 29.5 6.72727 30.9773 5.04545 30.9773C3.43182 30.9773 2.54545 29.6136 2.54545 27.6364ZM13.5455 32.2045C15.0682 32.2045 15.8636 31.3864 16.1364 30.8182H16.2045V32H17.5455V26.25C17.5455 23.4773 15.4318 23.1591 14.3182 23.1591C13 23.1591 11.5 23.6136 10.8182 25.2045L12.0909 25.6591C12.3864 25.0227 13.0852 24.3409 14.3636 24.3409C15.5966 24.3409 16.2045 24.9943 16.2045 26.1136V26.1591C16.2045 26.8068 15.5455 26.75 13.9545 26.9545C12.3352 27.1648 10.5682 27.5227 10.5682 29.5227C10.5682 31.2273 11.8864 32.2045 13.5455 32.2045ZM13.75 31C12.6818 31 11.9091 30.5227 11.9091 29.5909C11.9091 28.5682 12.8409 28.25 13.8864 28.1136C14.4545 28.0455 15.9773 27.8864 16.2045 27.6136V28.8409C16.2045 29.9318 15.3409 31 13.75 31ZM20.544 35.2727C21.7543 35.2727 22.6065 34.6307 23.1122 33.2727L26.8281 23.2955L25.3622 23.2727L22.9531 30.2273H22.8622L20.4531 23.2727H18.9986L22.2259 32.0455L21.9759 32.7273C21.4872 34.0568 20.8849 34.1818 19.9077 33.9318L19.5668 35.1136C19.7031 35.1818 20.0895 35.2727 20.544 35.2727ZM28.6023 32H29.9432V26.5455C29.9432 25.267 30.875 24.3636 31.9205 24.3636C32.9375 24.3636 33.6477 25.0284 33.6477 26.0227V32H35.0114V26.3182C35.0114 25.1932 35.7159 24.3636 36.9432 24.3636C37.8977 24.3636 38.7159 24.8693 38.7159 26.1591V32H40.0568V26.1591C40.0568 24.108 38.9545 23.1591 37.3977 23.1591C36.1477 23.1591 35.233 23.733 34.7841 24.6364H34.6932C34.2614 23.7045 33.5 23.1591 32.3523 23.1591C31.2159 23.1591 30.375 23.7045 30.0114 24.6364H29.8977V23.2727H28.6023V32ZM46.1676 32.1818C47.9403 32.1818 49.2358 31.2955 49.6449 29.9773L48.3494 29.6136C48.0085 30.5227 47.2188 30.9773 46.1676 30.9773C44.5938 30.9773 43.5085 29.9602 43.446 28.0909H49.7812V27.5227C49.7812 24.2727 47.8494 23.1591 46.0312 23.1591C43.6676 23.1591 42.0994 25.0227 42.0994 27.7045C42.0994 30.3864 43.6449 32.1818 46.1676 32.1818ZM43.446 26.9318C43.5369 25.5739 44.4972 24.3636 46.0312 24.3636C47.4858 24.3636 48.4176 25.4545 48.4176 26.9318H43.446ZM53.1619 26.75C53.1619 25.2273 54.1051 24.3636 55.3892 24.3636C56.6335 24.3636 57.3892 25.1761 57.3892 26.5455V32H58.7301V26.4545C58.7301 24.2273 57.5426 23.1591 55.7756 23.1591C54.4574 23.1591 53.6392 23.75 53.2301 24.6364H53.1165V23.2727H51.821V32H53.1619V26.75ZM64.9759 23.2727H63.1122V21.1818H61.7713V23.2727H60.4531V24.4091H61.7713V29.8636C61.7713 31.3864 62.9986 32.1136 64.1349 32.1136C64.6349 32.1136 64.9531 32.0227 65.1349 31.9545L64.8622 30.75C64.7486 30.7727 64.5668 30.8182 64.2713 30.8182C63.6804 30.8182 63.1122 30.6364 63.1122 29.5V24.4091H64.9759V23.2727Z" fill="#404E9C"/>
</svg>
