<svg width="36" height="37" viewBox="0 0 36 37" fill="none" xmlns="http://www.w3.org/2000/svg">
<path d="M18 0C8.05645 0 0 8.28024 0 18.5C0 28.7198 8.05645 37 18 37C27.9435 37 36 28.7198 36 18.5C36 8.28024 27.9435 0 18 0ZM26.8403 12.674L23.8863 26.9817C23.6685 27.9962 23.0806 28.2423 22.2605 27.7649L17.7605 24.3558L15.5903 26.5042C15.3508 26.7504 15.1476 26.9593 14.6831 26.9593L15.0024 22.2522L23.3419 14.5091C23.7048 14.1808 23.2621 13.9944 22.7831 14.3226L12.4766 20.9915L8.03468 19.5667C7.06935 19.2534 7.04758 18.5746 8.2379 18.0972L25.5919 11.2194C26.3976 10.921 27.1016 11.4208 26.8403 12.674V12.674Z" fill="white"/>
</svg>
