<svg width="224" height="12" viewBox="0 0 224 12" fill="none" xmlns="http://www.w3.org/2000/svg">
<path d="M2.64205 9H3.73295L5.65909 2.04545H5.72727L7.65341 9H8.74432L11.1307 0.272727H10.0568L8.23295 7.38068H8.14773L6.28977 0.272727H5.09659L3.23864 7.38068H3.15341L1.32955 0.272727H0.255682L2.64205 9ZM12.3111 9H13.3168V2.45455H12.3111V9ZM12.8224 1.36364C13.2145 1.36364 13.5384 1.05682 13.5384 0.681818C13.5384 0.306818 13.2145 0 12.8224 0C12.4304 0 12.1065 0.306818 12.1065 0.681818C12.1065 1.05682 12.4304 1.36364 12.8224 1.36364ZM17.9031 9.13636C19.2326 9.13636 20.2042 8.47159 20.511 7.48295L19.5394 7.21023C19.2837 7.89205 18.6914 8.23295 17.9031 8.23295C16.7227 8.23295 15.9087 7.47017 15.8619 6.06818H20.6133V5.64205C20.6133 3.20455 19.1644 2.36932 17.8008 2.36932C16.0281 2.36932 14.8519 3.76705 14.8519 5.77841C14.8519 7.78977 16.011 9.13636 17.9031 9.13636ZM15.8619 5.19886C15.93 4.1804 16.6502 3.27273 17.8008 3.27273C18.8917 3.27273 19.5906 4.09091 19.5906 5.19886H15.8619ZM23.6261 9H24.6147L26.0465 3.97159H26.1488L27.5806 9H28.5692L30.5636 2.45455H29.5067L28.092 7.44886H28.0238L26.6431 2.45455H25.5692L24.1715 7.46591H24.1033L22.6886 2.45455H21.6317L23.6261 9ZM35.2681 11.4545H36.2738V7.99432H36.359C36.5806 8.35227 37.0067 9.13636 38.2681 9.13636C39.9045 9.13636 41.0465 7.82386 41.0465 5.74432C41.0465 3.68182 39.9045 2.36932 38.2511 2.36932C36.9727 2.36932 36.5806 3.15341 36.359 3.49432H36.2397V2.45455H35.2681V11.4545ZM36.2567 5.72727C36.2567 4.26136 36.9045 3.27273 38.1317 3.27273C39.4102 3.27273 40.0408 4.34659 40.0408 5.72727C40.0408 7.125 39.3931 8.23295 38.1317 8.23295C36.9215 8.23295 36.2567 7.21023 36.2567 5.72727ZM42.5806 9H43.5863V4.85795C43.5863 3.97159 44.2852 3.32386 45.2397 3.32386C45.5082 3.32386 45.7852 3.375 45.8533 3.39205V2.36932C45.7383 2.3608 45.4741 2.35227 45.3249 2.35227C44.5408 2.35227 43.859 2.79545 43.6204 3.44318H43.5522V2.45455H42.5806V9ZM49.5053 9.13636C51.2781 9.13636 52.4712 7.78977 52.4712 5.76136C52.4712 3.71591 51.2781 2.36932 49.5053 2.36932C47.7326 2.36932 46.5394 3.71591 46.5394 5.76136C46.5394 7.78977 47.7326 9.13636 49.5053 9.13636ZM49.5053 8.23295C48.1587 8.23295 47.5451 7.07386 47.5451 5.76136C47.5451 4.44886 48.1587 3.27273 49.5053 3.27273C50.8519 3.27273 51.4656 4.44886 51.4656 5.76136C51.4656 7.07386 50.8519 8.23295 49.5053 8.23295ZM56.478 9.13636C57.7393 9.13636 58.1655 8.35227 58.3871 7.99432H58.5064V9H59.478V0.272727H58.4723V3.49432H58.3871C58.1655 3.15341 57.7734 2.36932 56.495 2.36932C54.8416 2.36932 53.6996 3.68182 53.6996 5.74432C53.6996 7.82386 54.8416 9.13636 56.478 9.13636ZM56.6143 8.23295C55.353 8.23295 54.7053 7.125 54.7053 5.72727C54.7053 4.34659 55.3359 3.27273 56.6143 3.27273C57.8416 3.27273 58.4893 4.26136 58.4893 5.72727C58.4893 7.21023 57.8246 8.23295 56.6143 8.23295ZM65.5845 6.32386C65.5845 7.55114 64.647 8.11364 63.897 8.11364C63.0618 8.11364 62.4652 7.5 62.4652 6.54545V2.45455H61.4595V6.61364C61.4595 8.28409 62.3459 9.08523 63.5732 9.08523C64.5618 9.08523 65.2095 8.55682 65.5163 7.89205H65.5845V9H66.5902V2.45455H65.5845V6.32386ZM71.0913 9.13636C72.5401 9.13636 73.4947 8.25 73.6651 7.09091H72.6594C72.4719 7.80682 71.8754 8.23295 71.0913 8.23295C69.8981 8.23295 69.131 7.24432 69.131 5.72727C69.131 4.24432 69.9151 3.27273 71.0913 3.27273C71.9776 3.27273 72.506 3.81818 72.6594 4.41477H73.6651C73.4947 3.1875 72.4549 2.36932 71.0742 2.36932C69.3015 2.36932 68.1254 3.76705 68.1254 5.76136C68.1254 7.72159 69.2504 9.13636 71.0913 9.13636ZM77.9819 2.45455H76.5842V0.886364H75.5785V2.45455H74.5898V3.30682H75.5785V7.39773C75.5785 8.53977 76.4989 9.08523 77.3512 9.08523C77.7262 9.08523 77.9648 9.01705 78.1012 8.96591L77.8967 8.0625C77.8114 8.07955 77.6751 8.11364 77.4535 8.11364C77.0103 8.11364 76.5842 7.97727 76.5842 7.125V3.30682H77.9819V2.45455ZM84.0138 3.92045C83.6985 2.99148 82.9911 2.36932 81.6957 2.36932C80.315 2.36932 79.2923 3.15341 79.2923 4.26136C79.2923 5.16477 79.8292 5.76989 81.0309 6.05114L82.1218 6.30682C82.7823 6.46023 83.0934 6.77557 83.0934 7.22727C83.0934 7.78977 82.4968 8.25 81.5593 8.25C80.7369 8.25 80.2212 7.89631 80.0423 7.19318L79.0877 7.43182C79.3221 8.54403 80.2383 9.13636 81.5763 9.13636C83.0977 9.13636 84.1332 8.3054 84.1332 7.17614C84.1332 6.2642 83.5621 5.68892 82.3945 5.40341L81.4229 5.16477C80.6474 4.97301 80.2979 4.71307 80.2979 4.21023C80.2979 3.64773 80.8945 3.23864 81.6957 3.23864C82.5735 3.23864 82.9357 3.72443 83.1104 4.17614L84.0138 3.92045ZM90.505 9H91.4936L92.9254 3.97159H93.0277L94.4595 9H95.4482L97.4425 2.45455H96.3857L94.9709 7.44886H94.9027L93.522 2.45455H92.4482L91.0504 7.46591H90.9822L89.5675 2.45455H88.5107L90.505 9ZM99.7777 5.0625C99.7777 3.92045 100.506 3.27273 101.499 3.27273C102.445 3.27273 103.016 3.86932 103.016 4.90909V9H104.022V4.84091C104.022 3.15767 103.127 2.36932 101.789 2.36932C100.758 2.36932 100.17 2.79972 99.8629 3.47727H99.7777V0.272727H98.772V9H99.7777V5.0625ZM105.862 9H106.868V2.45455H105.862V9ZM106.373 1.36364C106.765 1.36364 107.089 1.05682 107.089 0.681818C107.089 0.306818 106.765 0 106.373 0C105.981 0 105.657 0.306818 105.657 0.681818C105.657 1.05682 105.981 1.36364 106.373 1.36364ZM111.369 9.13636C112.817 9.13636 113.772 8.25 113.942 7.09091H112.937C112.749 7.80682 112.153 8.23295 111.369 8.23295C110.175 8.23295 109.408 7.24432 109.408 5.72727C109.408 4.24432 110.192 3.27273 111.369 3.27273C112.255 3.27273 112.783 3.81818 112.937 4.41477H113.942C113.772 3.1875 112.732 2.36932 111.352 2.36932C109.579 2.36932 108.403 3.76705 108.403 5.76136C108.403 7.72159 109.528 9.13636 111.369 9.13636ZM116.418 5.0625C116.418 3.92045 117.147 3.27273 118.14 3.27273C119.086 3.27273 119.657 3.86932 119.657 4.90909V9H120.663V4.84091C120.663 3.15767 119.768 2.36932 118.43 2.36932C117.398 2.36932 116.81 2.79972 116.504 3.47727H116.418V0.272727H115.413V9H116.418V5.0625ZM128.537 9.13636C129.985 9.13636 130.94 8.25 131.11 7.09091H130.105C129.917 7.80682 129.321 8.23295 128.537 8.23295C127.343 8.23295 126.576 7.24432 126.576 5.72727C126.576 4.24432 127.36 3.27273 128.537 3.27273C129.423 3.27273 129.951 3.81818 130.105 4.41477H131.11C130.94 3.1875 129.9 2.36932 128.52 2.36932C126.747 2.36932 125.571 3.76705 125.571 5.76136C125.571 7.72159 126.696 9.13636 128.537 9.13636ZM136.706 6.32386C136.706 7.55114 135.768 8.11364 135.018 8.11364C134.183 8.11364 133.586 7.5 133.586 6.54545V2.45455H132.581V6.61364C132.581 8.28409 133.467 9.08523 134.694 9.08523C135.683 9.08523 136.331 8.55682 136.637 7.89205H136.706V9H137.711V2.45455H136.706V6.32386ZM139.553 9H140.559V4.85795C140.559 3.97159 141.258 3.32386 142.212 3.32386C142.481 3.32386 142.758 3.375 142.826 3.39205V2.36932C142.711 2.3608 142.447 2.35227 142.298 2.35227C141.513 2.35227 140.832 2.79545 140.593 3.44318H140.525V2.45455H139.553V9ZM144.018 9H145.024V4.85795C145.024 3.97159 145.723 3.32386 146.677 3.32386C146.946 3.32386 147.223 3.375 147.291 3.39205V2.36932C147.176 2.3608 146.912 2.35227 146.762 2.35227C145.978 2.35227 145.297 2.79545 145.058 3.44318H144.99V2.45455H144.018V9ZM151.028 9.13636C152.358 9.13636 153.329 8.47159 153.636 7.48295L152.664 7.21023C152.409 7.89205 151.816 8.23295 151.028 8.23295C149.848 8.23295 149.034 7.47017 148.987 6.06818H153.738V5.64205C153.738 3.20455 152.289 2.36932 150.926 2.36932C149.153 2.36932 147.977 3.76705 147.977 5.77841C147.977 7.78977 149.136 9.13636 151.028 9.13636ZM148.987 5.19886C149.055 4.1804 149.775 3.27273 150.926 3.27273C152.017 3.27273 152.716 4.09091 152.716 5.19886H148.987ZM156.274 5.0625C156.274 3.92045 156.981 3.27273 157.944 3.27273C158.877 3.27273 159.444 3.8821 159.444 4.90909V9H160.45V4.84091C160.45 3.17045 159.559 2.36932 158.234 2.36932C157.245 2.36932 156.632 2.8125 156.325 3.47727H156.24V2.45455H155.268V9H156.274V5.0625ZM165.134 2.45455H163.737V0.886364H162.731V2.45455H161.742V3.30682H162.731V7.39773C162.731 8.53977 163.651 9.08523 164.504 9.08523C164.879 9.08523 165.117 9.01705 165.254 8.96591L165.049 8.0625C164.964 8.07955 164.827 8.11364 164.606 8.11364C164.163 8.11364 163.737 7.97727 163.737 7.125V3.30682H165.134V2.45455ZM172.494 9.13636C173.755 9.13636 174.181 8.35227 174.403 7.99432H174.522V9H175.494V0.272727H174.488V3.49432H174.403C174.181 3.15341 173.789 2.36932 172.511 2.36932C170.857 2.36932 169.715 3.68182 169.715 5.74432C169.715 7.82386 170.857 9.13636 172.494 9.13636ZM172.63 8.23295C171.369 8.23295 170.721 7.125 170.721 5.72727C170.721 4.34659 171.352 3.27273 172.63 3.27273C173.857 3.27273 174.505 4.26136 174.505 5.72727C174.505 7.21023 173.84 8.23295 172.63 8.23295ZM177.475 9H178.481V2.45455H177.475V9ZM177.987 1.36364C178.379 1.36364 178.702 1.05682 178.702 0.681818C178.702 0.306818 178.379 0 177.987 0C177.594 0 177.271 0.306818 177.271 0.681818C177.271 1.05682 177.594 1.36364 177.987 1.36364ZM184.959 3.92045C184.644 2.99148 183.936 2.36932 182.641 2.36932C181.26 2.36932 180.238 3.15341 180.238 4.26136C180.238 5.16477 180.775 5.76989 181.976 6.05114L183.067 6.30682C183.728 6.46023 184.039 6.77557 184.039 7.22727C184.039 7.78977 183.442 8.25 182.505 8.25C181.682 8.25 181.167 7.89631 180.988 7.19318L180.033 7.43182C180.267 8.54403 181.184 9.13636 182.522 9.13636C184.043 9.13636 185.078 8.3054 185.078 7.17614C185.078 6.2642 184.507 5.68892 183.34 5.40341L182.368 5.16477C181.593 4.97301 181.243 4.71307 181.243 4.21023C181.243 3.64773 181.84 3.23864 182.641 3.23864C183.519 3.23864 183.881 3.72443 184.056 4.17614L184.959 3.92045ZM189.251 9.13636C190.7 9.13636 191.655 8.25 191.825 7.09091H190.82C190.632 7.80682 190.036 8.23295 189.251 8.23295C188.058 8.23295 187.291 7.24432 187.291 5.72727C187.291 4.24432 188.075 3.27273 189.251 3.27273C190.138 3.27273 190.666 3.81818 190.82 4.41477H191.825C191.655 3.1875 190.615 2.36932 189.234 2.36932C187.462 2.36932 186.286 3.76705 186.286 5.76136C186.286 7.72159 187.411 9.13636 189.251 9.13636ZM195.955 9.13636C197.727 9.13636 198.92 7.78977 198.92 5.76136C198.92 3.71591 197.727 2.36932 195.955 2.36932C194.182 2.36932 192.989 3.71591 192.989 5.76136C192.989 7.78977 194.182 9.13636 195.955 9.13636ZM195.955 8.23295C194.608 8.23295 193.994 7.07386 193.994 5.76136C193.994 4.44886 194.608 3.27273 195.955 3.27273C197.301 3.27273 197.915 4.44886 197.915 5.76136C197.915 7.07386 197.301 8.23295 195.955 8.23295ZM204.581 6.32386C204.581 7.55114 203.643 8.11364 202.893 8.11364C202.058 8.11364 201.461 7.5 201.461 6.54545V2.45455H200.456V6.61364C200.456 8.28409 201.342 9.08523 202.569 9.08523C203.558 9.08523 204.206 8.55682 204.512 7.89205H204.581V9H205.586V2.45455H204.581V6.32386ZM208.434 5.0625C208.434 3.92045 209.141 3.27273 210.104 3.27273C211.038 3.27273 211.604 3.8821 211.604 4.90909V9H212.61V4.84091C212.61 3.17045 211.719 2.36932 210.394 2.36932C209.406 2.36932 208.792 2.8125 208.485 3.47727H208.4V2.45455H207.428V9H208.434V5.0625ZM217.294 2.45455H215.897V0.886364H214.891V2.45455H213.902V3.30682H214.891V7.39773C214.891 8.53977 215.811 9.08523 216.664 9.08523C217.039 9.08523 217.277 9.01705 217.414 8.96591L217.209 8.0625C217.124 8.07955 216.988 8.11364 216.766 8.11364C216.323 8.11364 215.897 7.97727 215.897 7.125V3.30682H217.294V2.45455ZM223.326 3.92045C223.011 2.99148 222.304 2.36932 221.008 2.36932C219.627 2.36932 218.605 3.15341 218.605 4.26136C218.605 5.16477 219.142 5.76989 220.343 6.05114L221.434 6.30682C222.095 6.46023 222.406 6.77557 222.406 7.22727C222.406 7.78977 221.809 8.25 220.872 8.25C220.049 8.25 219.534 7.89631 219.355 7.19318L218.4 7.43182C218.635 8.54403 219.551 9.13636 220.889 9.13636C222.41 9.13636 223.446 8.3054 223.446 7.17614C223.446 6.2642 222.875 5.68892 221.707 5.40341L220.735 5.16477C219.96 4.97301 219.61 4.71307 219.61 4.21023C219.61 3.64773 220.207 3.23864 221.008 3.23864C221.886 3.23864 222.248 3.72443 222.423 4.17614L223.326 3.92045Z" fill="white"/>
</svg>
