<svg width="286" height="15" viewBox="0 0 286 15" fill="none" xmlns="http://www.w3.org/2000/svg">
<path d="M0.428267 0.909091L5.17756 8.8608V14H7.14631V8.8608L11.8956 0.909091H9.65199L6.23224 6.86009H6.09162L2.67188 0.909091H0.428267ZM13.5304 14L14.7321 10.5355H19.8457L21.041 14H23.1376L18.4267 0.909091H16.1447L11.4338 14H13.5304ZM15.3074 8.87358L17.2377 3.28693H17.34L19.2704 8.87358H15.3074ZM35.5941 0.909091H33.6381V10.5227H33.5167L26.8562 0.909091H25.0281V14H27.0032V4.39915H27.1246L33.7788 14H35.5941V0.909091ZM47.3347 5.04474H49.361C48.9199 2.49432 46.7402 0.730113 43.915 0.730113C40.5272 0.730113 38.0534 3.28054 38.0534 7.46094C38.0534 11.603 40.4569 14.179 44.0044 14.179C47.1813 14.179 49.4505 12.0952 49.4505 8.79048V7.30114H44.3049V8.93111H47.5392C47.4945 11.0405 46.101 12.3764 44.0044 12.3764C41.6969 12.3764 40.0158 10.6314 40.0158 7.44815C40.0158 4.2777 41.7097 2.53267 43.9277 2.53267C45.6664 2.53267 46.8425 3.49148 47.3347 5.04474ZM53.9329 0.909091H51.9577V14H53.9329V0.909091ZM56.8093 14H64.7163V12.2997H58.7844V0.909091H56.8093V14ZM68.9446 0.909091H66.9695V14H68.9446V0.909091ZM71.821 14H73.7962V9.92827L75.343 8.15128L79.5746 14H81.9524L76.6534 6.80256L81.9332 0.909091H79.4467L73.956 7.16051H73.7962V0.909091H71.821V14ZM83.7741 14H91.6811V12.2997H85.7493V0.909091H83.7741V14ZM95.6905 14L96.8922 10.5355H102.006L103.201 14H105.298L100.587 0.909091H98.3049L93.5939 14H95.6905ZM97.4675 8.87358L99.3979 3.28693H99.5002L101.431 8.87358H97.4675ZM107.188 14H109.163V9.04616H111.848C111.893 9.04616 111.931 9.04616 111.976 9.04616L114.635 14H116.885L113.983 8.70099C115.587 8.10653 116.386 6.7706 116.386 5.01278C116.386 2.60298 114.891 0.909091 111.854 0.909091H107.188V14ZM109.163 7.34588V2.60298H111.643C113.593 2.60298 114.398 3.52983 114.398 5.01278C114.398 6.48935 113.593 7.34588 111.669 7.34588H109.163ZM127.649 5.04474H129.675C129.234 2.49432 127.055 0.730113 124.229 0.730113C120.842 0.730113 118.368 3.28054 118.368 7.46094C118.368 11.603 120.771 14.179 124.319 14.179C127.496 14.179 129.765 12.0952 129.765 8.79048V7.30114H124.619V8.93111H127.854C127.809 11.0405 126.415 12.3764 124.319 12.3764C122.011 12.3764 120.33 10.6314 120.33 7.44815C120.33 4.2777 122.024 2.53267 124.242 2.53267C125.981 2.53267 127.157 3.49148 127.649 5.04474ZM132.974 14L134.175 10.5355H139.289L140.484 14H142.581L137.87 0.909091H135.588L130.877 14H132.974ZM134.751 8.87358L136.681 3.28693H136.783L138.714 8.87358H134.751ZM160.607 7.45455C160.607 3.26776 158.101 0.730113 154.713 0.730113C151.312 0.730113 148.813 3.26776 148.813 7.45455C148.813 11.6349 151.312 14.179 154.713 14.179C158.101 14.179 160.607 11.6413 160.607 7.45455ZM158.651 7.45455C158.651 10.6442 156.963 12.3764 154.713 12.3764C152.457 12.3764 150.776 10.6442 150.776 7.45455C150.776 4.26491 152.457 2.53267 154.713 2.53267C156.963 2.53267 158.651 4.26491 158.651 7.45455ZM163.069 14H168.087C171.129 14 172.504 12.4851 172.504 10.478C172.504 8.4517 171.085 7.30753 169.787 7.23722V7.10938C170.989 6.80256 171.992 5.98438 171.992 4.34801C171.992 2.41122 170.65 0.909091 167.863 0.909091H163.069V14ZM165.044 12.3061V8.11293H167.965C169.551 8.11293 170.541 9.13565 170.541 10.3821C170.541 11.4815 169.794 12.3061 167.895 12.3061H165.044ZM165.044 6.57244V2.5902H167.742C169.308 2.5902 170.056 3.41477 170.056 4.50142C170.056 5.76705 169.02 6.57244 167.691 6.57244H165.044ZM183.265 0.909091V9.35938C183.265 11.1364 182.037 12.4148 180.043 12.4148C178.055 12.4148 176.822 11.1364 176.822 9.35938V0.909091H174.846V9.51918C174.846 12.2678 176.905 14.2173 180.043 14.2173C183.182 14.2173 185.246 12.2678 185.246 9.51918V0.909091H183.265ZM198.684 0.909091H196.728V10.5227H196.607L189.946 0.909091H188.118V14H190.093V4.39915H190.214L196.869 14H198.684V0.909091ZM202.671 14L203.873 10.5355H208.986L210.182 14H212.278L207.567 0.909091H205.285L200.574 14H202.671ZM204.448 8.87358L206.378 3.28693H206.481L208.411 8.87358H204.448ZM218.932 14H223.95C226.993 14 228.367 12.4851 228.367 10.478C228.367 8.4517 226.948 7.30753 225.65 7.23722V7.10938C226.852 6.80256 227.856 5.98438 227.856 4.34801C227.856 2.41122 226.513 0.909091 223.726 0.909091H218.932V14ZM220.907 12.3061V8.11293H223.829C225.414 8.11293 226.405 9.13565 226.405 10.3821C226.405 11.4815 225.657 12.3061 223.758 12.3061H220.907ZM220.907 6.57244V2.5902H223.605C225.171 2.5902 225.919 3.41477 225.919 4.50142C225.919 5.76705 224.883 6.57244 223.554 6.57244H220.907ZM242.081 7.45455C242.081 3.26776 239.575 0.730113 236.188 0.730113C232.787 0.730113 230.288 3.26776 230.288 7.45455C230.288 11.6349 232.787 14.179 236.188 14.179C239.575 14.179 242.081 11.6413 242.081 7.45455ZM240.125 7.45455C240.125 10.6442 238.438 12.3764 236.188 12.3764C233.931 12.3764 232.25 10.6442 232.25 7.45455C232.25 4.26491 233.931 2.53267 236.188 2.53267C238.438 2.53267 240.125 4.26491 240.125 7.45455ZM246.033 0.909091H244.397V2.15554C244.397 3.14631 243.962 3.9581 243.463 4.69318L244.409 5.37074C245.394 4.57812 246.033 3.22301 246.033 2.13636V0.909091ZM248.13 14H256.037V12.2997H250.105V0.909091H248.13V14ZM260.265 0.909091H258.29V14H260.265V0.909091ZM270.281 4.34801H272.186C272.129 2.25142 270.275 0.730113 267.616 0.730113C264.989 0.730113 262.975 2.23224 262.975 4.48864C262.975 6.31037 264.279 7.37784 266.382 7.94673L267.929 8.36861C269.329 8.73935 270.409 9.19957 270.409 10.3629C270.409 11.6413 269.188 12.4851 267.507 12.4851C265.986 12.4851 264.72 11.8075 264.605 10.3821H262.624C262.751 12.7536 264.586 14.2173 267.52 14.2173C270.594 14.2173 272.365 12.6001 272.365 10.3821C272.365 8.02344 270.262 7.10938 268.6 6.70028L267.322 6.3679C266.299 6.10582 264.938 5.62642 264.944 4.37358C264.944 3.26136 265.96 2.43679 267.571 2.43679C269.073 2.43679 270.141 3.13991 270.281 4.34801ZM274.725 14H276.7V8.2919H283.227V14H285.208V0.909091H283.227V6.59801H276.7V0.909091H274.725V14Z" fill="#151875"/>
</svg>
