<svg width="368" height="32" viewBox="0 0 368 32" fill="none" xmlns="http://www.w3.org/2000/svg">
<path d="M0.409091 0.363636L4.61364 7.20455V12H6.02273V7.20455L10.2273 0.363636H8.61364L5.38636 5.79545H5.25L2.02273 0.363636H0.409091ZM14.179 12.1818C16.5426 12.1818 18.1335 10.3864 18.1335 7.68182C18.1335 4.95455 16.5426 3.15909 14.179 3.15909C11.8153 3.15909 10.2244 4.95455 10.2244 7.68182C10.2244 10.3864 11.8153 12.1818 14.179 12.1818ZM14.179 10.9773C12.3835 10.9773 11.5653 9.43182 11.5653 7.68182C11.5653 5.93182 12.3835 4.36364 14.179 4.36364C15.9744 4.36364 16.7926 5.93182 16.7926 7.68182C16.7926 9.43182 15.9744 10.9773 14.179 10.9773ZM25.6804 8.43182C25.6804 10.0682 24.4304 10.8182 23.4304 10.8182C22.3168 10.8182 21.5213 10 21.5213 8.72727V3.27273H20.1804V8.81818C20.1804 11.0455 21.3622 12.1136 22.9986 12.1136C24.3168 12.1136 25.1804 11.4091 25.5895 10.5227H25.6804V12H27.0213V3.27273H25.6804V8.43182ZM37.5227 12.1818C39.4545 12.1818 40.7273 11 40.9545 9.45455H39.6136C39.3636 10.4091 38.5682 10.9773 37.5227 10.9773C35.9318 10.9773 34.9091 9.65909 34.9091 7.63636C34.9091 5.65909 35.9545 4.36364 37.5227 4.36364C38.7045 4.36364 39.4091 5.09091 39.6136 5.88636H40.9545C40.7273 4.25 39.3409 3.15909 37.5 3.15909C35.1364 3.15909 33.5682 5.02273 33.5682 7.68182C33.5682 10.2955 35.0682 12.1818 37.5227 12.1818ZM45.483 12.2045C47.0057 12.2045 47.8011 11.3864 48.0739 10.8182H48.142V12H49.483V6.25C49.483 3.47727 47.3693 3.15909 46.2557 3.15909C44.9375 3.15909 43.4375 3.61364 42.7557 5.20455L44.0284 5.65909C44.3239 5.02273 45.0227 4.34091 46.3011 4.34091C47.5341 4.34091 48.142 4.99432 48.142 6.11364V6.15909C48.142 6.80682 47.483 6.75 45.892 6.95455C44.2727 7.16477 42.5057 7.52273 42.5057 9.52273C42.5057 11.2273 43.8239 12.2045 45.483 12.2045ZM45.6875 11C44.6193 11 43.8466 10.5227 43.8466 9.59091C43.8466 8.56818 44.7784 8.25 45.8239 8.11364C46.392 8.04545 47.9148 7.88636 48.142 7.61364V8.84091C48.142 9.93182 47.2784 11 45.6875 11ZM53.2713 6.75C53.2713 5.22727 54.2145 4.36364 55.4986 4.36364C56.7429 4.36364 57.4986 5.17614 57.4986 6.54545V12H58.8395V6.45455C58.8395 4.22727 57.652 3.15909 55.8849 3.15909C54.5668 3.15909 53.7486 3.75 53.3395 4.63636H53.2259V3.27273H51.9304V12H53.2713V6.75ZM65.9716 12H67.267V10.6591H67.4261C67.7216 11.1364 68.2898 12.1818 69.9716 12.1818C72.1534 12.1818 73.6761 10.4318 73.6761 7.65909C73.6761 4.90909 72.1534 3.15909 69.9489 3.15909C68.2443 3.15909 67.7216 4.20455 67.4261 4.65909H67.3125V0.363636H65.9716V12ZM67.2898 7.63636C67.2898 5.68182 68.1534 4.36364 69.7898 4.36364C71.4943 4.36364 72.3352 5.79545 72.3352 7.63636C72.3352 9.5 71.4716 10.9773 69.7898 10.9773C68.1761 10.9773 67.2898 9.61364 67.2898 7.63636ZM81.2273 8.43182C81.2273 10.0682 79.9773 10.8182 78.9773 10.8182C77.8636 10.8182 77.0682 10 77.0682 8.72727V3.27273H75.7273V8.81818C75.7273 11.0455 76.9091 12.1136 78.5455 12.1136C79.8636 12.1136 80.7273 11.4091 81.1364 10.5227H81.2273V12H82.5682V3.27273H81.2273V8.43182ZM85.8878 15.2727C87.098 15.2727 87.9503 14.6307 88.456 13.2727L92.1719 3.29545L90.706 3.27273L88.2969 10.2273H88.206L85.7969 3.27273H84.3423L87.5696 12.0455L87.3196 12.7273C86.831 14.0568 86.2287 14.1818 85.2514 13.9318L84.9105 15.1136C85.0469 15.1818 85.4332 15.2727 85.8878 15.2727ZM101.014 12.2045C102.537 12.2045 103.332 11.3864 103.605 10.8182H103.673V12H105.014V6.25C105.014 3.47727 102.901 3.15909 101.787 3.15909C100.469 3.15909 98.9688 3.61364 98.2869 5.20455L99.5597 5.65909C99.8551 5.02273 100.554 4.34091 101.832 4.34091C103.065 4.34091 103.673 4.99432 103.673 6.11364V6.15909C103.673 6.80682 103.014 6.75 101.423 6.95455C99.804 7.16477 98.0369 7.52273 98.0369 9.52273C98.0369 11.2273 99.3551 12.2045 101.014 12.2045ZM101.219 11C100.151 11 99.3778 10.5227 99.3778 9.59091C99.3778 8.56818 100.31 8.25 101.355 8.11364C101.923 8.04545 103.446 7.88636 103.673 7.61364V8.84091C103.673 9.93182 102.81 11 101.219 11ZM108.803 6.75C108.803 5.22727 109.746 4.36364 111.03 4.36364C112.274 4.36364 113.03 5.17614 113.03 6.54545V12H114.371V6.45455C114.371 4.22727 113.183 3.15909 111.416 3.15909C110.098 3.15909 109.28 3.75 108.871 4.63636H108.757V3.27273H107.462V12H108.803V6.75ZM117.372 15.2727C118.582 15.2727 119.435 14.6307 119.94 13.2727L123.656 3.29545L122.19 3.27273L119.781 10.2273H119.69L117.281 3.27273H115.827L119.054 12.0455L118.804 12.7273C118.315 14.0568 117.713 14.1818 116.736 13.9318L116.395 15.1136C116.531 15.1818 116.918 15.2727 117.372 15.2727ZM129.226 3.27273H127.362V1.18182H126.021V3.27273H124.703V4.40909H126.021V9.86364C126.021 11.3864 127.249 12.1136 128.385 12.1136C128.885 12.1136 129.203 12.0227 129.385 11.9545L129.112 10.75C128.999 10.7727 128.817 10.8182 128.521 10.8182C127.93 10.8182 127.362 10.6364 127.362 9.5V4.40909H129.226V3.27273ZM132.771 6.75C132.771 5.22727 133.743 4.36364 135.067 4.36364C136.328 4.36364 137.089 5.15909 137.089 6.54545V12H138.43V6.45455C138.43 4.21023 137.237 3.15909 135.453 3.15909C134.078 3.15909 133.294 3.73295 132.885 4.63636H132.771V0.363636H131.43V12H132.771V6.75ZM140.884 12H142.224V3.27273H140.884V12ZM141.565 1.81818C142.088 1.81818 142.52 1.40909 142.52 0.909091C142.52 0.409091 142.088 0 141.565 0C141.043 0 140.611 0.409091 140.611 0.909091C140.611 1.40909 141.043 1.81818 141.565 1.81818ZM146.021 6.75C146.021 5.22727 146.964 4.36364 148.249 4.36364C149.493 4.36364 150.249 5.17614 150.249 6.54545V12H151.589V6.45455C151.589 4.22727 150.402 3.15909 148.635 3.15909C147.317 3.15909 146.499 3.75 146.089 4.63636H145.976V3.27273H144.68V12H146.021V6.75ZM157.562 15.4545C159.653 15.4545 161.335 14.5 161.335 12.25V3.27273H160.04V4.65909H159.903C159.608 4.20455 159.062 3.15909 157.358 3.15909C155.153 3.15909 153.631 4.90909 153.631 7.59091C153.631 10.3182 155.222 11.8636 157.335 11.8636C159.04 11.8636 159.585 10.8636 159.881 10.3864H159.994V12.1591C159.994 13.6136 158.972 14.2727 157.562 14.2727C155.977 14.2727 155.42 13.4375 155.062 12.9545L153.994 13.7045C154.54 14.6193 155.614 15.4545 157.562 15.4545ZM157.517 10.6591C155.835 10.6591 154.972 9.38636 154.972 7.56818C154.972 5.79545 155.812 4.36364 157.517 4.36364C159.153 4.36364 160.017 5.68182 160.017 7.56818C160.017 9.5 159.131 10.6591 157.517 10.6591ZM169.153 15.2727C170.364 15.2727 171.216 14.6307 171.722 13.2727L175.438 3.29545L173.972 3.27273L171.562 10.2273H171.472L169.062 3.27273H167.608L170.835 12.0455L170.585 12.7273C170.097 14.0568 169.494 14.1818 168.517 13.9318L168.176 15.1136C168.312 15.1818 168.699 15.2727 169.153 15.2727ZM180.445 12.1818C182.808 12.1818 184.399 10.3864 184.399 7.68182C184.399 4.95455 182.808 3.15909 180.445 3.15909C178.081 3.15909 176.49 4.95455 176.49 7.68182C176.49 10.3864 178.081 12.1818 180.445 12.1818ZM180.445 10.9773C178.649 10.9773 177.831 9.43182 177.831 7.68182C177.831 5.93182 178.649 4.36364 180.445 4.36364C182.24 4.36364 183.058 5.93182 183.058 7.68182C183.058 9.43182 182.24 10.9773 180.445 10.9773ZM191.946 8.43182C191.946 10.0682 190.696 10.8182 189.696 10.8182C188.582 10.8182 187.787 10 187.787 8.72727V3.27273H186.446V8.81818C186.446 11.0455 187.628 12.1136 189.264 12.1136C190.582 12.1136 191.446 11.4091 191.855 10.5227H191.946V12H193.287V3.27273H191.946V8.43182ZM201.584 0.363636H200.243V12H201.584V0.363636ZM204.04 12H205.381V3.27273H204.04V12ZM204.722 1.81818C205.244 1.81818 205.676 1.40909 205.676 0.909091C205.676 0.409091 205.244 0 204.722 0C204.199 0 203.767 0.409091 203.767 0.909091C203.767 1.40909 204.199 1.81818 204.722 1.81818ZM207.837 12H209.178V8.73295L210.115 7.86364L213.382 12H215.087L211.126 7L214.814 3.27273H213.155L209.337 7.15909H209.178V0.363636H207.837V12ZM219.839 12.1818C221.612 12.1818 222.908 11.2955 223.317 9.97727L222.021 9.61364C221.68 10.5227 220.891 10.9773 219.839 10.9773C218.266 10.9773 217.18 9.96023 217.118 8.09091H223.453V7.52273C223.453 4.27273 221.521 3.15909 219.703 3.15909C217.339 3.15909 215.771 5.02273 215.771 7.70455C215.771 10.3864 217.317 12.1818 219.839 12.1818ZM217.118 6.93182C217.209 5.57386 218.169 4.36364 219.703 4.36364C221.158 4.36364 222.089 5.45455 222.089 6.93182H217.118ZM233.538 12.1818C235.902 12.1818 237.493 10.3864 237.493 7.68182C237.493 4.95455 235.902 3.15909 233.538 3.15909C231.175 3.15909 229.584 4.95455 229.584 7.68182C229.584 10.3864 231.175 12.1818 233.538 12.1818ZM233.538 10.9773C231.743 10.9773 230.925 9.43182 230.925 7.68182C230.925 5.93182 231.743 4.36364 233.538 4.36364C235.334 4.36364 236.152 5.93182 236.152 7.68182C236.152 9.43182 235.334 10.9773 233.538 10.9773ZM245.04 8.43182C245.04 10.0682 243.79 10.8182 242.79 10.8182C241.676 10.8182 240.881 10 240.881 8.72727V3.27273H239.54V8.81818C239.54 11.0455 240.722 12.1136 242.358 12.1136C243.676 12.1136 244.54 11.4091 244.949 10.5227H245.04V12H246.381V3.27273H245.04V8.43182ZM248.837 12H250.178V6.47727C250.178 5.29545 251.109 4.43182 252.382 4.43182C252.74 4.43182 253.109 4.5 253.2 4.52273V3.15909C253.047 3.14773 252.695 3.13636 252.496 3.13636C251.45 3.13636 250.541 3.72727 250.223 4.59091H250.132V3.27273H248.837V12ZM265.472 5.22727C265.051 3.98864 264.108 3.15909 262.381 3.15909C260.54 3.15909 259.176 4.20455 259.176 5.68182C259.176 6.88636 259.892 7.69318 261.494 8.06818L262.949 8.40909C263.83 8.61364 264.244 9.03409 264.244 9.63636C264.244 10.3864 263.449 11 262.199 11C261.102 11 260.415 10.5284 260.176 9.59091L258.903 9.90909C259.216 11.392 260.438 12.1818 262.222 12.1818C264.25 12.1818 265.631 11.0739 265.631 9.56818C265.631 8.35227 264.869 7.58523 263.312 7.20455L262.017 6.88636C260.983 6.63068 260.517 6.28409 260.517 5.61364C260.517 4.86364 261.312 4.31818 262.381 4.31818C263.551 4.31818 264.034 4.96591 264.267 5.56818L265.472 5.22727ZM268.99 6.75C268.99 5.22727 269.962 4.36364 271.286 4.36364C272.547 4.36364 273.308 5.15909 273.308 6.54545V12H274.649V6.45455C274.649 4.21023 273.456 3.15909 271.672 3.15909C270.297 3.15909 269.513 3.73295 269.104 4.63636H268.99V0.363636H267.649V12H268.99V6.75ZM280.648 12.1818C283.011 12.1818 284.602 10.3864 284.602 7.68182C284.602 4.95455 283.011 3.15909 280.648 3.15909C278.284 3.15909 276.693 4.95455 276.693 7.68182C276.693 10.3864 278.284 12.1818 280.648 12.1818ZM280.648 10.9773C278.852 10.9773 278.034 9.43182 278.034 7.68182C278.034 5.93182 278.852 4.36364 280.648 4.36364C282.443 4.36364 283.261 5.93182 283.261 7.68182C283.261 9.43182 282.443 10.9773 280.648 10.9773ZM286.649 15.2727H287.99V10.6591H288.104C288.399 11.1364 288.967 12.1818 290.649 12.1818C292.831 12.1818 294.354 10.4318 294.354 7.65909C294.354 4.90909 292.831 3.15909 290.626 3.15909C288.922 3.15909 288.399 4.20455 288.104 4.65909H287.945V3.27273H286.649V15.2727ZM287.967 7.63636C287.967 5.68182 288.831 4.36364 290.467 4.36364C292.172 4.36364 293.013 5.79545 293.013 7.63636C293.013 9.5 292.149 10.9773 290.467 10.9773C288.854 10.9773 287.967 9.61364 287.967 7.63636ZM304.445 12.1818C306.808 12.1818 308.399 10.3864 308.399 7.68182C308.399 4.95455 306.808 3.15909 304.445 3.15909C302.081 3.15909 300.49 4.95455 300.49 7.68182C300.49 10.3864 302.081 12.1818 304.445 12.1818ZM304.445 10.9773C302.649 10.9773 301.831 9.43182 301.831 7.68182C301.831 5.93182 302.649 4.36364 304.445 4.36364C306.24 4.36364 307.058 5.93182 307.058 7.68182C307.058 9.43182 306.24 10.9773 304.445 10.9773ZM311.787 6.75C311.787 5.22727 312.73 4.36364 314.014 4.36364C315.259 4.36364 316.014 5.17614 316.014 6.54545V12H317.355V6.45455C317.355 4.22727 316.168 3.15909 314.401 3.15909C313.082 3.15909 312.264 3.75 311.855 4.63636H311.741V3.27273H310.446V12H311.787V6.75ZM321.146 0.363636H319.805V12H321.146V0.363636ZM323.602 12H324.943V3.27273H323.602V12ZM324.284 1.81818C324.807 1.81818 325.239 1.40909 325.239 0.909091C325.239 0.409091 324.807 0 324.284 0C323.761 0 323.33 0.409091 323.33 0.909091C323.33 1.40909 323.761 1.81818 324.284 1.81818ZM328.74 6.75C328.74 5.22727 329.683 4.36364 330.967 4.36364C332.212 4.36364 332.967 5.17614 332.967 6.54545V12H334.308V6.45455C334.308 4.22727 333.121 3.15909 331.354 3.15909C330.036 3.15909 329.217 3.75 328.808 4.63636H328.695V3.27273H327.399V12H328.74V6.75ZM340.418 12.1818C342.19 12.1818 343.486 11.2955 343.895 9.97727L342.599 9.61364C342.259 10.5227 341.469 10.9773 340.418 10.9773C338.844 10.9773 337.759 9.96023 337.696 8.09091H344.031V7.52273C344.031 4.27273 342.099 3.15909 340.281 3.15909C337.918 3.15909 336.349 5.02273 336.349 7.70455C336.349 10.3864 337.895 12.1818 340.418 12.1818ZM337.696 6.93182C337.787 5.57386 338.747 4.36364 340.281 4.36364C341.736 4.36364 342.668 5.45455 342.668 6.93182H337.696ZM350.753 12H352.048V10.6591H352.207C352.503 11.1364 353.071 12.1818 354.753 12.1818C356.935 12.1818 358.457 10.4318 358.457 7.65909C358.457 4.90909 356.935 3.15909 354.73 3.15909C353.026 3.15909 352.503 4.20455 352.207 4.65909H352.094V0.363636H350.753V12ZM352.071 7.63636C352.071 5.68182 352.935 4.36364 354.571 4.36364C356.276 4.36364 357.116 5.79545 357.116 7.63636C357.116 9.5 356.253 10.9773 354.571 10.9773C352.957 10.9773 352.071 9.61364 352.071 7.63636ZM361.06 15.2727C362.27 15.2727 363.122 14.6307 363.628 13.2727L367.344 3.29545L365.878 3.27273L363.469 10.2273H363.378L360.969 3.27273H359.514L362.741 12.0455L362.491 12.7273C362.003 14.0568 361.401 14.1818 360.423 13.9318L360.082 15.1136C360.219 15.1818 360.605 15.2727 361.06 15.2727ZM1.40909 31H8.52273V29.75H2.81818V25.7955H8.06818V24.5455H2.81818V20.6136H8.43182V19.3636H1.40909V31ZM15.7898 25.3864H10.6989V26.6364H15.7898V25.3864ZM18.1491 31H19.4901V25.5455C19.4901 24.267 20.4219 23.3636 21.4673 23.3636C22.4844 23.3636 23.1946 24.0284 23.1946 25.0227V31H24.5582V25.3182C24.5582 24.1932 25.2628 23.3636 26.4901 23.3636C27.4446 23.3636 28.2628 23.8693 28.2628 25.1591V31H29.6037V25.1591C29.6037 23.108 28.5014 22.1591 26.9446 22.1591C25.6946 22.1591 24.7798 22.733 24.331 23.6364H24.2401C23.8082 22.7045 23.0469 22.1591 21.8991 22.1591C20.7628 22.1591 19.9219 22.7045 19.5582 23.6364H19.4446V22.2727H18.1491V31ZM34.6236 31.2045C36.1463 31.2045 36.9418 30.3864 37.2145 29.8182H37.2827V31H38.6236V25.25C38.6236 22.4773 36.5099 22.1591 35.3963 22.1591C34.0781 22.1591 32.5781 22.6136 31.8963 24.2045L33.169 24.6591C33.4645 24.0227 34.1634 23.3409 35.4418 23.3409C36.6747 23.3409 37.2827 23.9943 37.2827 25.1136V25.1591C37.2827 25.8068 36.6236 25.75 35.0327 25.9545C33.4134 26.1648 31.6463 26.5227 31.6463 28.5227C31.6463 30.2273 32.9645 31.2045 34.6236 31.2045ZM34.8281 30C33.7599 30 32.9872 29.5227 32.9872 28.5909C32.9872 27.5682 33.919 27.25 34.9645 27.1136C35.5327 27.0455 37.0554 26.8864 37.2827 26.6136V27.8409C37.2827 28.9318 36.419 30 34.8281 30ZM41.071 31H42.4119V22.2727H41.071V31ZM41.7528 20.8182C42.2756 20.8182 42.7074 20.4091 42.7074 19.9091C42.7074 19.4091 42.2756 19 41.7528 19C41.2301 19 40.7983 19.4091 40.7983 19.9091C40.7983 20.4091 41.2301 20.8182 41.7528 20.8182ZM46.2088 19.3636H44.8679V31H46.2088V19.3636Z" fill="#404E9C"/>
</svg>
